<svg xmlns="http://www.w3.org/2000/svg" viewBox="0 0 1183.27 443.98"><g id="Camada_2" data-name="Camada 2"><g id="Camada_5" data-name="Camada 5"><path d="M342.1,210.21c-.64,1.8-.54,3.66-1.16,5.36a62.06,62.06,0,0,0-2.08,8.83,5.07,5.07,0,0,0,2.76,2.45,6.69,6.69,0,0,1,3.74,3.2,2.56,2.56,0,0,0,1.38,1.16c2.82,1,4.81,3.16,7.17,4.81,3,2.06,5.37,4.83,8.78,6.4,2.85,1.32,5,3.89,8,5.11,1.18.47,2,1.81,3,2.74a1.18,1.18,0,0,1-.92.62,1.2,1.2,0,0,1-.71-.28c-2.45-1.81-4.87-3.67-7.32-5.48a2.56,2.56,0,0,0-1.24-.55c-2-.15-3.32-1.48-4.8-2.56-3.08-2.26-6.19-4.47-9.29-6.7-2.34-1.69-5.44-2.06-7.48-4.3-.18-.2-.56-.22-.84-.33a8.87,8.87,0,0,0-2.66-.89c-.86,0-1.14.79-1.85,2.77-.52,1.44-1.09,2.86-1.53,4.32a6.3,6.3,0,0,0-.25,2.28c0,.52.32,1.28.9,1.28a.5.5,0,0,0,.17,0,4.69,4.69,0,0,1,1-.11c1.68,0,3,1,4.39,1.84.9.57,1.78,1.18,2.69,1.73a37,37,0,0,1,5.09,3.07c4.19,3.62,9.38,5.83,13.43,9.63a7.44,7.44,0,0,0,3.07,2c2.19.52,3.74,2,5.57,3.09a24,24,0,0,1,4,3c2.25,2.06,4.43,4.13,7.53,4.95a6,6,0,0,1,3.27,2.46,6.05,6.05,0,0,0,4,2.81,4.28,4.28,0,0,1,1.58.88,28.9,28.9,0,0,0,8.85,4.75,2.61,2.61,0,0,1,1.42,1.06,5.26,5.26,0,0,0,2.93,2.74c1.43.51,2.09,2.16,3.63,2.74a11.35,11.35,0,0,1,4.36,2.46c1.21,1.28,2.78,1.84,4,2.93.13.12.17.61.06.69a1.22,1.22,0,0,1-.66.25.24.24,0,0,1-.15,0c-3.47-2.24-7.88-2.5-11.12-5.24-.31-.26-.88-.21-1.32-.34-2.49-.72-4.32-2.84-6.95-3.28-3-3.2-7.51-4.07-10.9-6.71-3-.82-5.47-2.69-8.14-4.14a27.44,27.44,0,0,0-2.77-1.55c-2.09-.87-3.85-2.5-6.2-2.85-1.41-2-4-2.28-5.64-3.75a36.66,36.66,0,0,0-4.12-2.87c-1.14-.74-2.7-.92-3.66-1.79a27.55,27.55,0,0,0-3.24-2.51,21.42,21.42,0,0,0-2-1,29.8,29.8,0,0,1-5.11-2.85,11.78,11.78,0,0,0-4.89-2.52c-.36.13-.78.32-1.21.45-4.65,1.46-4.67,1.5-4.42,6.42,1.91,2.56,4.71,3.83,7.44,5.23.26.14.3.69.63,1.53a114.93,114.93,0,0,1-12-6.29,2.21,2.21,0,0,0-1.93,1.91,83.22,83.22,0,0,1-3.51,10.89,19.08,19.08,0,0,0-1,3.54c-.35,1.64.78,3.28.07,4.95l1.52,3.35a4.82,4.82,0,0,0-4.14,2.54,36.27,36.27,0,0,0-4,9.7A11.48,11.48,0,0,1,316,300a2.49,2.49,0,0,0,.11,3,7.23,7.23,0,0,0,1.8,2,5.31,5.31,0,0,1,2,2.47,1.82,1.82,0,0,1-.53,2.58c-.61-.17-1.32-.39-2.05-.58a4.94,4.94,0,0,0-1.26-.2c-1.11,0-1.76.61-2.38,1.9-1.09,2.26-.9,4.8-1.71,7.11a2.19,2.19,0,0,0,.12,1.35c.68,1.86,1.23,3.74,2.83,5.18a23,23,0,0,1,2.79,3.67c-1.23,2.31-1.58,4.68-2.14,7.13,1.36,1,2.44,2.29,3.81,2.79,1.56.57,2.5,1.74,3.69,2.66a33.49,33.49,0,0,1,4,3,49.24,49.24,0,0,0,5.67,4.54c2.67.31,3.77,2.34,4.87,4.39a1.48,1.48,0,0,1-.92.39,1.35,1.35,0,0,1-1.07-.66,10.28,10.28,0,0,0-5.6-3.82,8.44,8.44,0,0,1-2.4-1.25c-2.87-2-5.79-4-8.72-5.88a2.65,2.65,0,0,0-1.28-.41l-1.8,0h-2.14c-1.55,2.12-1.55,2.12-1.26,4.26a.93.93,0,0,1-.78,1.13.59.59,0,0,1-.23,0c-1.15-.43-2.26-.93-3.42-1.32a7,7,0,0,0-1.53-.22c-2.17,2.59-1.95,5.69-2.85,8.42a2.17,2.17,0,0,0,1,2.4c2,1.35,3.51,3.42,6,4.11.47.12.8.72,1.17,1.06a3.86,3.86,0,0,1-3.21,1.62,5.82,5.82,0,0,1-1.08-.11,14.19,14.19,0,0,1-1.7-.66,6.42,6.42,0,0,0-1.94-.4c-1.06,0-1.76.56-2.74,1.88a20.84,20.84,0,0,0-1.79,2.68,3.84,3.84,0,0,0,.73,4.65c1.42,1.38,2.87,2.75,5,3.12a1,1,0,0,1,.72,1.41l-7.11,1.33c-.13,0-.23.2-.44.4l-1.18,3.36c1.88,2.79,1.67,6.16,2.89,9-.84,1.55-1.63,2.86-2.29,4.25-1.05,2.2-1.07,5.36,2,6.63,2.86,1.2,5.16,3.29,7.85,4.75.17.09.19.46.36.92-1.36,0-2.64.05-3.91.05h-.31a3.27,3.27,0,0,0-2.48,1c-2.71,2.78-2.89,3.45-.47,6.61a8.48,8.48,0,0,0,1.89,2,9.11,9.11,0,0,1,2.62,2.48,4.29,4.29,0,0,0,3.54,1.85c.31,0,.61.31,1,.52l-5.8,4.65a16.67,16.67,0,0,0-3-1.22,7.21,7.21,0,0,0-1.55-.15,11,11,0,0,0-1.63.13,2,2,0,0,0-1.36,1.11l-.74,1.42c-.64,2.37-.48,3.68.46,5.05l.34.51a12,12,0,0,0,2.68,3.16c1.19.85,3.33,3,4.72,3.49a4.28,4.28,0,0,0,1.24,0h.39a8.71,8.71,0,0,0,4.81-1.5c.51-.34,1-.74,1.44-1.09a19.14,19.14,0,0,0,3,1.31,4.7,4.7,0,0,1,2.62,1.69,1.16,1.16,0,0,0,.83.3,9.6,9.6,0,0,1,5.22,1.55,2.89,2.89,0,0,0,1.32.32c1.13.08,2.27.12,3.4.12a45.13,45.13,0,0,0,10.27-1.17,1.22,1.22,0,0,0,.61-1.53,8.78,8.78,0,0,1-.64-1.21c-.15-.46-1.1-.75-.2-1.58a11.88,11.88,0,0,0,2.62,1.6,16.86,16.86,0,0,0,3.2.28,3.59,3.59,0,0,1,1.3.41,12.84,12.84,0,0,0,6.21,1.41,4.87,4.87,0,0,1,2.21.45,8.74,8.74,0,0,0,4.14,1.2,6.53,6.53,0,0,0,2.87-.67,1.62,1.62,0,0,1,.7-.13l.79,0,.34,0a1.91,1.91,0,0,0,1.4-2.8,6.42,6.42,0,0,0-1.33-1.84c-3.06-2.78-5.79-5.93-9.28-8.23a23.53,23.53,0,0,1-2.82-2.38c-.19-.17-.37-.7-.27-.8a1.67,1.67,0,0,1,1-.59h0a5.22,5.22,0,0,1,1.75.46c3.95,1.64,7.88,3.31,11.83,5a11.33,11.33,0,0,0,2.54,1,19,19,0,0,1,6.74,2.73c1.44.84,3.06,1.37,4.59,2.07a11.47,11.47,0,0,1,2.45,1.23c2.44,2,5.26,2.25,8.23,2.28h.08a4.11,4.11,0,0,0,3.78-2c.32-.5.61-1,.86-1.42a8,8,0,0,1,1.69-.21,4.51,4.51,0,0,1,2.88,1,9.7,9.7,0,0,0,6.21,1.91l.74,0h.46a12.4,12.4,0,0,1,2.72.31,6.64,6.64,0,0,0,1.45.35,1.23,1.23,0,0,0,.73-.23,6.81,6.81,0,0,0,1.64-1.57,6.42,6.42,0,0,0,1.17-2.48c.24-1.7,1.37-2.7,2.47-3.76a2.65,2.65,0,0,1,1.83-.92,3.17,3.17,0,0,1,1.48.46c1.59.86,2.87,2.3,4.88,2.38a2.35,2.35,0,0,1,1.52,1c1.24,1.74,3.36,2,5,3.14a2.81,2.81,0,0,0,1.65.5,5.13,5.13,0,0,0,2.69-.89c.92-.59.86-1.53.95-2.45.07-.76.35-1.51.38-2.26a3.05,3.05,0,0,0-1.23-2.83,26.71,26.71,0,0,1-4.59-3.81,2.13,2.13,0,0,0-1.2-.65c-2-.17-3.26-1.55-4.83-2.46s-3.33-1.55-4.58-3a3.61,3.61,0,0,0-2.93-1.1,2.46,2.46,0,0,1-2.26-1.32c-.23-.39-.45-1-.8-1.08-2.06-.63-3.72-2.42-6-2.42a4.56,4.56,0,0,0-.8.07,3.28,3.28,0,0,1-.43,0,3.16,3.16,0,0,1-2.39-1.32c-.65-.8-1.7-1.38-1.74-2.68.53-.44,1.13-.88,1.66-1.39s1-1.1,1.42-1.61c2.87,1.21,5.59,2.26,8.22,3.48,4.85,2.25,9.64,4.59,14.84,6a6.51,6.51,0,0,0,1.62.23c2,0,3.29-1.23,3.64-3.59a4.91,4.91,0,0,0-.55-3.57c-2-2.83-3-6.47-6.65-8a1.35,1.35,0,0,1-.68-.61c-.74-1.7-2.32-2.18-3.82-3-3.49-1.87-6.8-4.07-10.16-6.17-.1-.06,0-.45,0-.68a1.59,1.59,0,0,1,.37-.14h.05c2.4,1,5,1.67,7.12,3.12s5,1.57,6.92,3.49a2.89,2.89,0,0,0,1.69.55c.43,0,.87.05,1.3.05l1.79,0c.44-.53.7-.9,1-1.22,1.85-1.82,1.8-4.13,1.63-6.44a2.68,2.68,0,0,0-1.61-2.14c-1.22-.6-2.53-1-3.87-1.57A12.49,12.49,0,0,0,430.9,384a13.19,13.19,0,0,0,1.27-2.34,5,5,0,0,1,.94-.18,3,3,0,0,0,2.54-.83c.86-1.06,2-1.9,2.3-3.38a2.75,2.75,0,0,0-.54-2.16c-1-1.49-2.05-3-3-4.4l-3.5-1.6c-1.16-2.23,1.13-3.73.35-6a32.08,32.08,0,0,0-3.22-2.72c-2-1.32-3.7-3.17-6.42-3.38a3,3,0,0,1-2.82-2,3.08,3.08,0,0,1,1.5-.39,3.39,3.39,0,0,1,1.59.41c3.8,2,8.1,1.22,12.09,2.23a2.76,2.76,0,0,0,.75.1,4.15,4.15,0,0,0,3.2-1.92,3.31,3.31,0,0,0,.39-3.86,3.22,3.22,0,0,1-.2-.88c2.5-3.37,2.4-4.55-.15-7.66a7.49,7.49,0,0,0-4.65-2.53,4,4,0,0,1,.09-1.1c.49-1.21,1.66-2,1.23-3.75-.31-1.22.35-2.67.47-4a2.7,2.7,0,0,0-1.14-2.4c-1.66-1.34-3.28-2.75-5.05-3.93-1.36-.91-2.54-2.18-4.43-2.26-.8,0-1.63-.8-2.34-1.36s-1-1.15-1.6-1.66-1.44-1.15-2.19-1.69-1.32-.8-1.9-1.3-1.73.13-2.19-.91a3.74,3.74,0,0,1,1.37-.27,3.83,3.83,0,0,1,1.86.52c.94.51,1.83,1.12,2.78,1.61,1.16.6,2.24,1.46,3.62,1.46h.19l.44,0a10.85,10.85,0,0,1,5.23,1.66c2,1.11,3.82,1.43,7.11,1.58a23.33,23.33,0,0,0,.28-2.65c0-1.53-.15-3.07-.22-4.6a12.42,12.42,0,0,0-.12-2.29,6.06,6.06,0,0,0-1-2,7.53,7.53,0,0,0-1.47-1.24c.71-.46,1.49-.69,1.64-1.13a14.67,14.67,0,0,0,.86-4c.13-3.07,0-6.15.05-9.23a3.11,3.11,0,0,0-1.49-2.71,6.47,6.47,0,0,0-1.59-.87,12.4,12.4,0,0,1-5.3-3.49c-1.71-1.83-4-2.79-6.09-3.95-1.61-.89-3.3-1.61-4.91-2.48-.18-.09-1-.43-.13-1,1.48.61,3,1.29,4.56,1.87,2.28.85,4.58,1.64,6.88,2.42a4.87,4.87,0,0,0,1.38.14h6.35c2-3.36,1.2-6.7,1-10l-4.68-2.67c1.4-.09,2.1-.11,2.79-.2s1.44-.27,2-.39a15.37,15.37,0,0,0,1-6.09,27.89,27.89,0,0,1,0-6,4.8,4.8,0,0,0-2.64-5.33c-1.57-1-3-2.44-4.67-2.82-2.82-.64-4.25-3.6-7.17-3.83-.89-2-3.21-2.17-4.62-3.54a11,11,0,0,0-3-2,29.42,29.42,0,0,1-9.28-6.63,15.41,15.41,0,0,0-4.72-3.63c-1.66-.79-3.11-2-4.8-2.7-1.89-.77-2.46-2.66-3.85-3.84-2-1.72-2-2.76-.09-4.63a12.67,12.67,0,0,0,3.33,1.45c1.59.19,2.91.45,4,1.8a4.52,4.52,0,0,0,2.38,1.27,29.07,29.07,0,0,1,6.29,2.6,84.76,84.76,0,0,1,9.46,5.55c2.08,1.44,3.67,3.82,6.51,4.08,1.45,1.62,4,2.28,4.13,5.12,0,.9,1.11,1.79,1.79,2.62.88,1.06,1.82,2.08,2.75,3.1.46.5.39,1.5,1.38,1.5H436c.69,0,1-.56,1.18-2.2.06-.6.08-1.2.12-1.66l2.19-1.7c.51-4.74,1.82-9.23.88-14.11l-2.13-2a8.43,8.43,0,0,1,.26-4.11c.51-1.41-.45-2.65-.87-3.93a1.89,1.89,0,0,0-2-1.18h-.11c-1,1-2.15,2.22-3.26,3.35-4.41-.42-4.91-.91-5.42-5.16a2.76,2.76,0,0,0-.41-.8c-1.59-1.37-4-1.6-5-3.78a2.45,2.45,0,0,1,1.26-.37,2.26,2.26,0,0,1,1.71.83c1.92,2.2,4.63,2.23,7.12,2.66a7,7,0,0,0,1.07.1c2,0,3-1.17,3.42-3.46.17-.88.33-1.76.53-2.79l2.91.69c1.15-2.64-.14-5.55,1-8.14.21-.47-.11-1.19-.17-1.79-.13-1.21-.29-2.42-.36-3.64-.13-2.65-.54-3.12-3-3.79-1.46-.4-2.87-1-4.3-1.48-.88-2-2.66-2.28-4.57-2.39a3,3,0,0,1-1.61-.79,24.74,24.74,0,0,0-5.09-3.1,12,12,0,0,1-4.23-3.1,4.13,4.13,0,0,1,1.41-.27,3.8,3.8,0,0,1,2.16.72,14,14,0,0,0,3.6,2,25.72,25.72,0,0,1,7.77,3.83,24.37,24.37,0,0,0,4.92,2.47,3.17,3.17,0,0,0,1.18.25c1.16,0,2-.82,2.07-2.25.21-2.85.52-5.67-.19-8.58-.52-2.13-1.68-3.49-3.5-3.72-3.85-.47-6.91-3.25-10.8-3.44-.27,0-.53-.3-.8-.44-4.4-2.14-8.48-4.89-12.95-6.91a6.47,6.47,0,0,1-1.91-1.26,19.91,19.91,0,0,0-5.2-3.76,7.46,7.46,0,0,1-1.72-1.47c-2.56-2.62-6-4.17-8.44-6.91a11.45,11.45,0,0,1-5.17-3.65,21.9,21.9,0,0,0-3.24-2.52,1.49,1.49,0,0,1,1-.43,3.07,3.07,0,0,1,1.49.56c3.8,2.26,7,5.41,11.12,7.24a3.49,3.49,0,0,1,.69.6c1.76,1.49,3.46,3.05,5.28,4.44,2.91,2.21,5.49,5,9.2,5.93a3.12,3.12,0,0,1,1.16.73,22.58,22.58,0,0,0,6.57,4.13c1.09.46,1.93,1.5,3.21,1.5a2.37,2.37,0,0,0,.52-.06c1.5-.31,2.2-1.6,3.24-2.47a6.65,6.65,0,0,0,.64-.66,4.25,4.25,0,0,0,.5-5.09,8.71,8.71,0,0,1-1.3-2.88,8.06,8.06,0,0,0-2.84-5.11,3.49,3.49,0,0,1,.94-.42c1.59-.1,2.62-.74,2.75-2.47a3.35,3.35,0,0,1,1.82-2.53c.9-.57,1.84-1.09,2.8-1.58a4.6,4.6,0,0,0,2.65-4,50.52,50.52,0,0,0-.06-9.53l-3.47-3.66c3.17-.62,5.79-1.71,7.13-4.63a7.14,7.14,0,0,1-.41-1.83,4.42,4.42,0,0,0-2.26-4.26c-1.74-1-1.94-2.5-2.22-4.09l2.91-3.15c.95-2.75-.91-4.48-1.29-6.33,1.17-3.36,1.23-3.4-.35-5.74-1.79-2.63-3.36-5.41-6.45-7-1.83-.92-2.05-2.78-1.15-4.8.38-.84.79-1.67,1.23-2.59a13,13,0,0,1-.62-2.59,3.7,3.7,0,0,0-1.63-3.11,4.66,4.66,0,0,1-1.84-3.44c2.35-1.13,2.92-1.7,3.33-3.48.44-1.93.81-3.88,1.26-6l4.63,1.67c.41-.57,1.12-1.13,1.19-1.75.23-2.29.33-4.61.34-6.91,0-1.91-.59-3.82-2.26-4.79-3.08-1.79-5.24-4.7-8.3-6.47-.17-.1-4.74-3.71-5.73-4.71s-2.27-2-3.41-3c-.12-.09-.32-.11-.4-.22-1.54-2.35-3.83-3.85-6.08-5.41a1.49,1.49,0,0,1-.59-.68c-.65-2.1-2.32-3.13-4.14-4-.23-.11-.35-.47-.49-.73s-.11-.38-.05-.42a1.58,1.58,0,0,1,.65-.36h.06c1.56.64,3.17,1.29,4.12,2.74a9.25,9.25,0,0,0,3.51,2.82c2.25,1.29,4.42,2.65,5.71,5.14.92,1.78,2.74,2.86,4.36,4A42.76,42.76,0,0,1,428.12,48c2.1,1.26,4.44,2.12,6.2,3.94a1.72,1.72,0,0,0,1.24.57,2,2,0,0,0,1.24-.49c1.46-3.52,1.29-7.16.95-10.72-1.28-1.07-2.47-2-3.59-3-.27-.25-.3-.76-.45-1.17l3.08-1.91c1.26-2.89-1.13-5-1.19-7.48.18-.22.26-.4.39-.44l3.48-1.13a4.46,4.46,0,0,0,1.16-3.32c-.32-3.45-1.13-6.64-4.44-8.55-1.58-.91-3.08-2-4.71-2.82C429,10.21,426.5,9,423.69,9a9.59,9.59,0,0,0-1.83.17,4.15,4.15,0,0,1-.73.06,2.2,2.2,0,0,1-1.46-.41c-1.65-1.56-3.9-1.69-5.78-2.7A6,6,0,0,0,411,5.36a5.82,5.82,0,0,0-3.6,1.33,4.65,4.65,0,0,1-3,1.4h0l-2-1.61c-.84-.67-1.62-1.42-2.5-2C398,3.2,397.3,2.58,396.44,2.58c-.71,0-1.53.42-3.19,1.23a21.37,21.37,0,0,1-6.89,2.33c-3.1.33-4.7,1.92-5.71,4.54-.23.6-.46,1.12-1.45,1.12h0a8.12,8.12,0,0,0-4.75-3c-1.14-1.47-2.63-1.55-4.16-1.55h-.52c-.44,0-.87,0-1.3,0a10.2,10.2,0,0,1-2-.58c-3.17,2.88-3.17,2.88-3.87,6.13-1-.24-2.07-.47-3.1-.73a18.27,18.27,0,0,1-6.56-3.18c-2.19-1.65-4.27-3.45-6.45-5.12C345.26,2.77,344,2,342.66,1.16a2.7,2.7,0,0,0-1.31-.35h-.26a16.71,16.71,0,0,0-6.52,1,4.71,4.71,0,0,0-2,1.77c-1.15,1.56-1,3.41-1.24,5.56-2-1.73-3.77-3.22-5.52-4.67a4.29,4.29,0,0,0-1.53-.93A13.82,13.82,0,0,1,318,0h-2.37l-1.41,0c-1.79.07-2.52.68-2.85,2.36-.26,1.35-.51,2.69-.8,4.27,2.54,4.9,6.85,8.24,12,11.25a12.77,12.77,0,0,1-1.49.37.41.41,0,0,1-.16,0,8,8,0,0,1-3.6-1.92,6.66,6.66,0,0,0-2.14-1.68c-3.79-1.33-6.82-4.05-10.45-5.66-1.65-1.89-4.29-2.44-6-4.22a6.28,6.28,0,0,0-4.87-2.08,11.23,11.23,0,0,0-1.39.1,29.1,29.1,0,0,0-2,3.11,22.13,22.13,0,0,0-1,3.27c-.94-.26-1.78-.52-2.64-.72a3.32,3.32,0,0,0-.69-.08,2.51,2.51,0,0,0-2.35,1.53c-.5,1.12-.87,2.3-1.39,3.4a7.25,7.25,0,0,1-1,1.32c-2.48-.37-2.45-3.34-4.58-3.83l-4-5c-1.1-.47-2.53-.09-3.23-1.47a1.47,1.47,0,0,0-1.05-.65h-.07l-.35,0C267,3.68,266,3,264.89,3a2.35,2.35,0,0,0-1.33.4.74.74,0,0,1-.4.1,10.33,10.33,0,0,1-1.38-.25c-1-.14-2.09-.39-3.15-.45-.32,0-.66-.06-1-.06a1.76,1.76,0,0,0-1.56.67c-.7,1,.17,1.7.58,2.48a15.66,15.66,0,0,0,.94,1.58c1.81,2.6,4.24,4.71,5.81,7.53a5.29,5.29,0,0,0,2.39,2.12c3.26,1.36,5.22,4.24,7.81,6.36a2.94,2.94,0,0,1,1.43,2.7c-1.92-1.17-4.18-2-5.63-3.54-1.9-2.07-5.21-2.06-6.49-4.8-2.61-.71-3.79-3.5-6.36-4.31a6.86,6.86,0,0,1-1.84-1.35q-2-1.57-3.91-3.17a3.85,3.85,0,0,0-2.52-.85h-1.75c-.51,0-1,0-1.53,0a2,2,0,0,0-2,2.13c.06,1.32.32,2.63.49,4-1.68-.51-3.24-1-4.83-1.45a3.21,3.21,0,0,0-.8-.11,2.5,2.5,0,0,0-2.06,1.09c-.46.59-1.1,1-1.44,1.53a15.38,15.38,0,0,0-1.92,3.9c-.81,3.43,0,7.05-.21,10.64-.15,2.19-1.12,6.56-.91,8.75a7.1,7.1,0,0,0,3.19,4.91,5.71,5.71,0,0,1,1.68,2.14,4.64,4.64,0,0,0,1.85,2,22.74,22.74,0,0,1,2.2,1.59c1.63,1.35,3.17,2.81,4.78,4.16,3.76,3.15,7.18,6.65,10.86,9.88a13,13,0,0,1,2.2,2.36A29,29,0,0,0,263.18,71a32.25,32.25,0,0,1,4.3,4,30.18,30.18,0,0,0,3.46,3.6c1.69,1.51,3.28,3.13,5,4.63,2.41,2.11,4.53,4.57,7.1,6.54a1.73,1.73,0,0,1,.39.79.47.47,0,0,1-.1.37.68.68,0,0,1-.33.22s0,0,0,0c-1.68-1.2-4.05-1.24-5.28-3.26a6.56,6.56,0,0,0-2-1.83,53.35,53.35,0,0,1-7.13-5.7,41.32,41.32,0,0,0-6.75-5.45c-3.67-2.22-7.44-4.21-10.69-7.08a6.25,6.25,0,0,0-3.33-1.38,4.72,4.72,0,0,1-3.11-1.74,18,18,0,0,0-2.82-3,8.68,8.68,0,0,1-3.32-3,5.23,5.23,0,0,0-2.17-1.6c-1.36-.74-2.72-2.88-4.1-2.18-1,.51-.6,3.33-.67,4.46-.08,1.43,0,2.83-.1,4.15,0,.86-.08,1.68-.09,2.48a11.36,11.36,0,0,1-.33,2.3s0,.1,0,.15l.59.88-.3,1.68c-.08.44-.15.82,1.4,1.93a13.3,13.3,0,0,1,1.33,1.12l.4.36a6.25,6.25,0,0,1,3.78,3.7,19.62,19.62,0,0,1,.88,2.53c.09.3.18.62.29,1l1.66,5.19-5.44.34-1.29.06a10.49,10.49,0,0,0-1.49.11c-.25,0-.63.12-1.19,1.13l0,.08a12.39,12.39,0,0,0,.68,1.29,12.41,12.41,0,0,1,3.46,3.94,11.48,11.48,0,0,0,.7,1.06A21.83,21.83,0,0,1,238,97.05a7.44,7.44,0,0,0,1.55,2,4.92,4.92,0,0,1,2,4.29v.26l.74,7.81-6.95-3.66-.42-.22a8.35,8.35,0,0,1-1.41-.81l-.29-.21-.26.26-.63.64a8,8,0,0,1,2.87,4.56,8,8,0,0,1,1.9,4.51c.25,2.07.57,4.17.91,6.38q.21,1.35.42,2.76l.29,1.88L237.47,129c-.18.21-.39.44-.63.68s-.31.33-.39.43l-.14.29a8.65,8.65,0,0,1-4.12,4.61,12.23,12.23,0,0,1-.59,4l0,.14c.42,2.18.82,2.56,1.26,2.81a4.45,4.45,0,0,1,2.19,3.44v.07l.45,2.16-1.5,1.58-2,2.17,1,3.84a4.22,4.22,0,0,1,.37,1c.35,1.91-.21,5.94.54,7.72a3.11,3.11,0,0,0,1.66,1.54,9.49,9.49,0,0,1,3.91,3,14,14,0,0,0,2.56,1.91c1.11.81,2.24,1.59,3.34,2.41,2.3,1.72,4.51,3.59,6.91,5.17s5.22,3.14,7.89,4.61a4.33,4.33,0,0,1,2,2.74l-.4,0c-1.43,0-1.78-1.44-2.78-1.87a34.89,34.89,0,0,1-3.29-1.5,32.35,32.35,0,0,1-3-2.05c-1.35-1-2.54-2.29-4-3a40,40,0,0,1-7-4.28A9.15,9.15,0,0,0,236,170.8c-1,0-2.29-.21-3.17.47-1.16.89-2.69,6.1-2.53,8.25.12,1.64,1.66,4.77,4.06,5.19a2.37,2.37,0,0,1,1.39,1.11,9.64,9.64,0,0,0,3.69,3.37,18.59,18.59,0,0,1,1.88,1.31.93.93,0,0,1,.2.81.86.86,0,0,1-.62.53h0a10.55,10.55,0,0,1-1.76-.27,9.31,9.31,0,0,0-1.5-.4.88.88,0,0,0-.24,0c-2.06.61-5.19,1.25-4.67,3.68,0,.21,1.75,3.71,1.82,5.6l0,1.37-.76,1.14c-.25.37-.61.66-.71,1s.22,1.24.13,1.65-.27,1.05-.05,1.31a7.84,7.84,0,0,1,1.72,5.46,1.87,1.87,0,0,0,.39.82c1.85,3,3.42,6.15,6.24,8.39A45.26,45.26,0,0,1,245.9,225a14.82,14.82,0,0,0,6.86,4.41,2,2,0,0,1,1.48,2.11c-.12.09-.24.26-.37.27l-.66,0a6.11,6.11,0,0,1-5-2.24,3.34,3.34,0,0,0-1.75-1.31,26.55,26.55,0,0,1-3.32-1.49,29.48,29.48,0,0,0-6.86-2.56,6.06,6.06,0,0,0-1.23-.13,5.11,5.11,0,0,0-1.81.33c-1.13.4-1.7,1.59-2.21,2.17-.36.42-1.54.89-1.72,1.41s.48,2,.58,2.65a8.6,8.6,0,0,0,.25,1.3l1.23.73.53,1.46a10.54,10.54,0,0,1,.19,6.37L231.7,242l-1.2.88a10.11,10.11,0,0,1-2.05,1.5c-2,.63-6.44-.07-8.58-.29a7.12,7.12,0,0,1-3.11-1.28l-.45-.26-1.71-.68-.66-1.7-.41-1-.93-2.36c-.36-.91-.71-1.83-1.06-2.73l-.41-1L210,230l2.57-1.93.1-.08.18-.14c-.06-.51-.18-1.09-.32-1.73a18.42,18.42,0,0,1-.54-4l-.05-1.91a5.48,5.48,0,0,0-2-4c-.59-.59-8.9-4.68-9.81-4.7a3.79,3.79,0,0,1-2.87-1.2,23.3,23.3,0,0,0-5.66-3.85l-3.66-2.1-1.1-7.33c-2.34-2.46-2.34-2.46-3.1-5a35.25,35.25,0,0,1,8.79,5.42c2,1.89,3.8,4,6.38,5.13s4.54,3,7.11,4.12a12.34,12.34,0,0,0,4.89,1c.89,0,2.05.43,2.71-.24.46-.46-.1-4.25-.37-5.19a16.48,16.48,0,0,1-.47-5.23,12.7,12.7,0,0,0-.07-2.46,10.11,10.11,0,0,1,0-3.43c0-.22.08-.51.08-.64-.38-2-.58-4-.76-5.77a6.43,6.43,0,0,0-.09-.67,6.8,6.8,0,0,1-2.59-6.15l0-.51a9.31,9.31,0,0,1,.71-3.6c.13-.27.2-.62-.2-1.93a14.93,14.93,0,0,1-.4-1.75,6.78,6.78,0,0,0-.17-.79,8,8,0,0,1-.41-6.67,5,5,0,0,1,1.22-6.09l1.84-1.65s.82-.61.82-1.06v-1.29a2,2,0,0,0-1.11-1.91c-1.48-1-2.95-2.06-4.37-3.07l-2.78-2a5.46,5.46,0,0,1-2.06-6.73l1-2.58,2.75-.16,1.06-.08c.89-.07,1.9-.14,2.95-.14h.25a1.29,1.29,0,0,0,.39-.07v-.05l-.18-1c-.21-1.15-.41-2.23-.66-3.27l-.05-.15a5.77,5.77,0,0,1,.58-4.88c.17-.26.19-.3,0-.7a10.08,10.08,0,0,1-.33-4.1c0-.21,0-.42,0-.63,0-.75.11-1.45.18-2.13a11.39,11.39,0,0,0,.09-2.54,36.71,36.71,0,0,1-.51-6.73v0a18.28,18.28,0,0,1-4.86-4.92c-.22-.14-.5-.32-.8-.54l-7.78-5.65,9.41-2a8.67,8.67,0,0,1,1.7-.17,11.58,11.58,0,0,1,3.11.49,14.86,14.86,0,0,0,.12-2.41,2.11,2.11,0,0,0-.62-1.63l-1.14-1.19a15.51,15.51,0,0,0-4.24-3.59,4.94,4.94,0,0,1-2.43-2.71l-.06-.14-2.85-5.34,6-.85,2.53-.37h0L209.82,76a24.84,24.84,0,0,1,.31-3.18,11.59,11.59,0,0,0,.2-2.87v-.07a3.75,3.75,0,0,0-.33-1.52l-2.72-3.76,3.44-2.06a23.22,23.22,0,0,1-.62-5.64A8,8,0,0,0,208.56,52L207,49.81l1.23-2.34c.25-.47.49-.88.71-1.24s.4-.68.47-.84a35.55,35.55,0,0,0,.75-10.53,1.33,1.33,0,0,0,0-.3h0l0-.05a4.45,4.45,0,0,0-1.51-1.33l-.1,0c-3.62-1-4.55-3.53-4.69-5.43l-.19-2.46,2-1.38.5-.36a21.41,21.41,0,0,1,1.94-1.25l.1-.05a9.49,9.49,0,0,1,2.74-5c.79-.83,3-2.28,3-3.42.34-4.26-5.35-6.25-9.44-7.67a4.93,4.93,0,0,0-1.58-.36,2.55,2.55,0,0,0-1,.22,3.07,3.07,0,0,1-1.21.24,2,2,0,0,1-1-.22c-2.51-1.54-5.47-1.9-7.89-3.33a10.09,10.09,0,0,1-1.45.52c-2.23.38-3.16,1.68-2.93,3.9,0,.25-.23.53-.36.79a7,7,0,0,0-1.53-.46.91.91,0,0,0-.23,0,5.83,5.83,0,0,1-1.57.22A5.56,5.56,0,0,1,181,6.93a4.78,4.78,0,0,0-2.23-.59,2.39,2.39,0,0,0-2,.94c-.93,1.18-1.89,2.34-3,3.65-2.52-1.07-4.13-3.64-7-4.45a26.15,26.15,0,0,1-2.93.85c-1.89.34-2.52,1.5-2.49,3.27,0,.37-.34.75-.82,1.72-1.77-2.19-4.4-2-6.42-3.63a7.32,7.32,0,0,0-4.68-1.64,9,9,0,0,0-3.17.6,2.63,2.63,0,0,1-.94.21,1.68,1.68,0,0,1-.75-.18,23.49,23.49,0,0,0-3-1.08,4.8,4.8,0,0,0-1.3-.23,2.07,2.07,0,0,0-.5.06,11,11,0,0,0-3.42,1.21c-.65.41-.89,1.45-1.43,2.42-4.21-2.15-7.91-4.92-12.35-6.4a6.73,6.73,0,0,1-3.84,1c-.46,0-.93,0-1.4,0s-1.08-.13-1.62-.13a2.61,2.61,0,0,0-1.94.74,6.22,6.22,0,0,0,.3,1.24c.38.84.86,1.62,1.23,2.46a.88.88,0,0,1-.15.8,1,1,0,0,1-.6.22.54.54,0,0,1-.2,0,11.54,11.54,0,0,1-1.88-1.28,9.93,9.93,0,0,0-3.36-2.33c-1.56-.53-2.88-2-4.45-2.27a4.43,4.43,0,0,0-.81-.07c-1.33,0-2.75.5-4.13.59-2.42.15-5-.19-6.37,2.57-.14.3-.9.23-1.24.49-.85.64-1.62,1.38-2.45,2.11v5l11.42,10.16a16.67,16.67,0,0,0,1.82,1.41,15.91,15.91,0,0,1,3.6,3.45c1.1,1.36,2.91,2.15,4.39,3.21.24.18.37.5.59.71a63.32,63.32,0,0,0,5.7,5.31c1.86,1.38,3.08,3.2,4.76,4.85-.44.1-.79.27-1,.27a.15.15,0,0,1-.1,0c-2.07-1.8-4.6-3-6.44-5.12a6.43,6.43,0,0,0-2.08-1.79,13.39,13.39,0,0,1-4.52-3.83,25.76,25.76,0,0,0-2.77-2.43,2.89,2.89,0,0,1-.56.06c-1.34,0-1.83-1.17-2.47-2.2A6.3,6.3,0,0,0,100.55,27a114,114,0,0,1-10-8.79,3.54,3.54,0,0,0-.72-.57c-5.21-2.7-8.65-7.73-13.8-10.51-.39-.21-.62-.69-1-1-.7-.55-1.44-1.06-2-1.48A13.18,13.18,0,0,0,65.62,10c.07,1.36.16,3,.26,4.79A5.9,5.9,0,0,1,64,14.45c-1.82-1.12-3.84-2.09-5.28-3.6-2.3-2.38-5.29-3.65-7.82-5.62a2.34,2.34,0,0,0-1.25-.52c-1,0-1.95-.11-2.91-.11a5.77,5.77,0,0,0-4.07,1.3c-.94,2-.05,3.86.42,5.88-.6-.07-1.11,0-1.43-.19-1.77-1.19-4.08-1.36-5.65-3a1.88,1.88,0,0,0-1.25-.41H34.7a4.64,4.64,0,0,1-3.23-1.34,12.59,12.59,0,0,0-8.28-3.22c-.34,0-.69,0-1,.05a47.65,47.65,0,0,0-6.3,1.38c-.3,1.76-.49,3.28,1.12,4.62a37.06,37.06,0,0,1,3.72,4c.14.16.1.48.17.9a3.85,3.85,0,0,1-1.27-.42,7.94,7.94,0,0,0-4.28-2.48,5.19,5.19,0,0,1-3.08-1.85c-1.53-2-3.58-2.76-5.93-3.27-.34.24-.84.4-1.08.75-2.43,3.52-2.23,6.94.5,10,.66.74,1.74,1.29,1.35,2.85-1-.1-2-.94-3-.94a1.78,1.78,0,0,0-1.24.53A16.36,16.36,0,0,0,2,22.84c-.21,2.29-.16,4.61-.35,6.91a6.65,6.65,0,0,0,1.64,5.12C6.9,39,9.72,43.81,13.94,47.44a9.71,9.71,0,0,1,1.57,2.23,12,12,0,0,0,1.68,2.71c1.49,1.31,3.17,2.35,3.65,4.52.09.44.93.71,1.4,1.1a8.66,8.66,0,0,1,1.68,1.5c2.09,3,3.89,6.22,7.11,8.26.47.3.68,1,1.07,1.47,1.27,1.53,2.66,3,3.83,4.56s3.57,2.41,4.26,4.65c.11.34.73.52,1.1.79.6.45,1.42.79,1.76,1.4a6.75,6.75,0,0,0,3,2.73c1.35.69,1.14,2.47,2.11,3.47a8.33,8.33,0,0,0,1.5,1A5,5,0,0,1,51.94,90a3.94,3.94,0,0,0,1.92,1.88,6.8,6.8,0,0,1,3.33,3A15.36,15.36,0,0,0,60.87,99c2,1.63,3.55,3.66,5.83,5,1,.55,1.53,1.76,2.29,2.68a1.89,1.89,0,0,1-1.13.42,1.69,1.69,0,0,1-1.14-.49,24.86,24.86,0,0,0-2.18-2.28c-2.25-1.57-4.75-2.81-6.39-5.16a2.5,2.5,0,0,0-1.53-1c-1.52-.19-2.37-1.34-3.49-2.12a7.94,7.94,0,0,0-2.8-1.55c-1.85-.33-2.92-1.53-4-2.8a26.59,26.59,0,0,0-3.78-3.93,5.83,5.83,0,0,1-2.41-3.24A14.66,14.66,0,0,0,36.93,79a13.41,13.41,0,0,1-1.71-2.16c-1.39-2.73-4.31-4.39-5.22-7.45a1.37,1.37,0,0,0-.63-.65c-2.55-1.41-4-3.76-5.3-6.19a6.46,6.46,0,0,0-1.54-1.64c-.45-.38-1.2-.53-1.47-1-1.25-2.07-3.28-3.17-5-4.4l-4.2-.26L4.66,50.1c-.31.49-.84,1-.88,1.47-.15,1.83-.07,3.69-.19,5.52a13,13,0,0,0,2.17,7.84,5.71,5.71,0,0,0,.58.72c1.06,1.28.88,2.72.76,4.48-.75-.57-1.21-1-1.72-1.3a1.84,1.84,0,0,0-1-.31,1.35,1.35,0,0,0-1.29.9,5.46,5.46,0,0,0-.46,1.76c-.08,1.83-.12,3.68-.07,5.51,0,1.38.33,2.77-.56,4,.76,1.33.44,2.61,0,4a6.54,6.54,0,0,0-.12,3.2c.47,2.29,0,4.54,0,6.8,0,.62,0,1.24,0,1.85C1.63,99,2,101.12,4.6,102.18a1.21,1.21,0,0,1,.56.72,4.94,4.94,0,0,1,.12,1.15,1.65,1.65,0,0,1-.38,0c-1,0-1.75-.79-2.61-.79a1.48,1.48,0,0,0-1,.44c-.55,1-.26,2.07-.31,3.12a9.52,9.52,0,0,0,.51,3.61c.33,1-.47,1.91-.27,3.08.74,4.38,1.19,8.82-1.18,13a27.78,27.78,0,0,1,.67,3.11c.12,1.22,0,2.46,0,3.7v18a11.14,11.14,0,0,0,.55,4.54,5.42,5.42,0,0,1,.1,3.6,30.33,30.33,0,0,0-.12,12.3c.25,1.5.63,3.16.22,4.53A20.51,20.51,0,0,0,1,182.27c0,2,.21,4,.22,6s-.11,4.23-.18,6.35a8.42,8.42,0,0,0,.59,4.51,1.57,1.57,0,0,1,0,1.32c-.92,1.4-.28,2.61.22,3.92A11.51,11.51,0,0,0,5.54,210,6.4,6.4,0,0,1,8,213.19c.39,1.71,1.55,2.56,2.55,3.68.16.18,0,.65,0,1.2-2.9-1.71-6-2.17-8.6-3.87a.68.68,0,0,0-.36-.08H1.12a.64.64,0,0,0-.48.12c-.25.32-.56.92-.43,1.16,1,1.72.39,3.68.9,5.4a18.85,18.85,0,0,1,.52,5.47c0,4.62.11,9.24,0,13.86a6.43,6.43,0,0,0,2.54,5.61,21.86,21.86,0,0,1,3.48,3.64c1,1.25,2.69,1.93,4,2.94a17.68,17.68,0,0,1,1.63,1.61c.34.33.31.54-.66.84-1.25-1.55-3.38-1.57-5.5-1.86a22.59,22.59,0,0,0-3-.36,4.87,4.87,0,0,0-3.24,1.14c-.15,4.85-.58,9.88.79,14.86a6,6,0,0,1,.22,2.27,27.84,27.84,0,0,0,.69,11.38c-.28,2.57,1.81,4.1,2.73,6.15a2,2,0,0,0,1,.86c2.42.88,4.37,2.81,7,3.18a10.24,10.24,0,0,1,4.85,2.4,23.84,23.84,0,0,0,6.58,4.11c2.41.81,4.28,2.26,6.46,3.43a2.34,2.34,0,0,1-1.64.75,2,2,0,0,1-1.34-.52c-1.67-1.44-3.75-2-5.6-3.11a23.49,23.49,0,0,0-5.38-2.57,32.16,32.16,0,0,1-5.75-2.53,5,5,0,0,0-2.14-.56H9.22a3.9,3.9,0,0,1-3.11-1.41,1.79,1.79,0,0,0-1.37-.57,3.81,3.81,0,0,0-1.64.45A2.45,2.45,0,0,0,1.87,295c.12,1,.64,2,.16,3.09-.4.94,1,2,.1,3,.54,1.8.31,4,2.91,4.63a1.77,1.77,0,0,1,1.37,2.12A2.86,2.86,0,0,0,8,311c1.14.77,2.33,1.47,3.44,2.28.84.61,1.58,1.35,2.41,2.06-.27.19-.43.36-.52.36h0c-2.6-.83-5.26-1.5-7.46-3.29a7.68,7.68,0,0,0-2.51-1,.48.48,0,0,0-.18,0c-.5,0-1.17.54-1.15,1,.05,1.05.6,2.28.22,3.1-1.2,2.61.63,4.77.72,7.17a1.46,1.46,0,0,0,.77,1.08c1.84.58,2.77,2.53,4.48,3.09,2,.64,3.3,2.18,5.14,2.93a40.09,40.09,0,0,1,7.78,4.79c2.62,1.84,5.06,3.93,7.85,5.57,1.94,1.13,4,2.1,5.58,3.87,1,1.07,2.55,1.63,3.91,2.31A8.78,8.78,0,0,1,43,350.69a1.09,1.09,0,0,1-.46.12c-.44,0-.77-.36-1.15-.6A28,28,0,0,0,35,346.74,23.94,23.94,0,0,1,28.18,343c-4.23-3.34-8.65-6.26-13.88-7.72A3.51,3.51,0,0,1,12,333.93c-1.64-2.68-4.9-3-7-5a.87.87,0,0,0-.6-.22,1.93,1.93,0,0,0-1.74,1.65c-.07,1.38,0,2.77-.06,4.15a9,9,0,0,1-.12,2.75,21.21,21.21,0,0,0-.8,6.38,33,33,0,0,0-.08,6.29,23.31,23.31,0,0,1-.18,6.87,8,8,0,0,0,0,3.58,13.49,13.49,0,0,1,.27,3.19c.09,3.22.16,6.45.2,9.67s.7,6.36,3.48,8.53a1,1,0,0,1-.69.33c-.4,0-.72-.33-1.07-.45a1.86,1.86,0,0,0-.55-.09c-.68,0-1.18.44-1,1a6.74,6.74,0,0,1,0,4.92,4,4,0,0,0,.26,3.14c.24.52.51,1.33.28,1.72-.92,1.55-.1,2.93.09,4.41a39,39,0,0,1,.07,4.59c0,1.69-.07,3.39.07,5.07a25.78,25.78,0,0,1,0,4.48,13.54,13.54,0,0,0,.49,4.53c.5,2,1,4.2-.3,6.28a3.27,3.27,0,0,0,.14,2.2,1.86,1.86,0,0,1-.06,1.72c-.75,1.13,0,2.6-.56,3.54-.85,1.51.11,2.66.17,4a8,8,0,0,1,.06,1.38,3.15,3.15,0,0,0,2.17,3.66c3.73,1.34,7,4.11,11.17,4.11l.81,0h.14a2.45,2.45,0,0,1,1.18.34,4,4,0,0,0,2,.61,4.19,4.19,0,0,0,2.95-1.48,9.38,9.38,0,0,1,1.59-.9c2.39-1.6,4.18-3.6,4.21-6.86,2.71.93,5.39,1.29,7.75,2.86A6.59,6.59,0,0,0,40.48,438a7.82,7.82,0,0,0,1-.06,5.29,5.29,0,0,1,.8-.06,7.44,7.44,0,0,1,4.32,1.52,16.91,16.91,0,0,0,6,1.76,1.19,1.19,0,0,0,.43-.06,3.22,3.22,0,0,1,1.25-.24,8.56,8.56,0,0,1,1.82.28c1.63.34,3.29.46,4.93.92a8.86,8.86,0,0,0,2.33.32,6.42,6.42,0,0,0,2.22-.36,9.13,9.13,0,0,1,3.18-.56,17.81,17.81,0,0,1,4,.58,10.22,10.22,0,0,0,2.27.28,5.68,5.68,0,0,0,4.17-1.63,4.53,4.53,0,0,0,.26-.91c.09-.92.14-1.84.19-2.76,0-.76,0-1.54.1-2.3A2.39,2.39,0,0,1,82.12,433a2,2,0,0,1,.88.2c.26.13.61.27.73.5a4.12,4.12,0,0,0,3,2,13.45,13.45,0,0,1,6.23,3.64c1,.09,1.91.24,2.8.24h.08c1.39,0,2.66.82,4,.82a3.46,3.46,0,0,0,.89-.12q2.63-.76,5.27-1.5a.44.44,0,0,1,.17,0h.48a14,14,0,0,0,1.87,1,9.82,9.82,0,0,0,3.28.74c1.65,0,2.71-.87,3.73-2.66a3,3,0,0,0,.46-2.56c-.17-.57.46-1.38.85-2.37,2.24,1.35,4.51,2.1,6.48,3.67,4.57,3.62,6.32,4.2,11.61,4.67a18.89,18.89,0,0,0,4.22-2.64c1.46-1.16,1.31-5.62,2.57-7a21.82,21.82,0,0,0,3.47-5.45c.8-2.36,0-7.85-2.45-8.64A6.09,6.09,0,0,1,140.5,416c-2.64-2.59-6.23-3.86-8.85-6.51-.79-.79-2.33-.78-3.33-1.43s-1.92-1.9-3-2.71-2.18-1.16-3.15-1.89c-2.92-2.2-6.11-4.07-8.63-6.82a10.36,10.36,0,0,0-3-2,28.63,28.63,0,0,1-5.64-3.93c-3.12-2.68-5.92-5.75-9.6-7.76-.74-.4-1.18-1.39-1.7-2.15a.85.85,0,0,1,0-.79,1,1,0,0,1,.63-.23.32.32,0,0,1,.18,0c2.11,1.23,4.16,2.58,6.3,3.77a14.6,14.6,0,0,1,3.34,2.4,17.65,17.65,0,0,0,8.36,5.07c1,2,2.18,3.44,4.46,3.44h.23a2.61,2.61,0,0,1,1.51.88,27.92,27.92,0,0,0,2.8,3c1.08.79,2.54,1,3.71,1.75s1.79,2,2.85,2.22c1.81.43,2.89,1.6,4.14,2.71a8.38,8.38,0,0,0,1.95,1.14c1.9.93,4.06,1.52,5.66,2.82s3.41,3.68,5.5,3.23c1-.22,1.89-2.63,2.18-3.66.47-1.71,0-3.55.05-5.31,0-.33,0-.71,0-1.11a12.56,12.56,0,0,1,.44-4.77,6.08,6.08,0,0,0-.08-3.5c-.3-1.29-.19-4.14-.95-5.22-1.45-2.06-4.4-2.55-6.63-3.84-1.27-2.6-4.78-2.77-6.14-5.7,1-.08,1.91-.1,2.77-.24,1-.17,2.05-.44,3.15-.69l1.72,1.55c.34.31.67.62,1,.9a.76.76,0,0,0,.46.13c.47,0,1-.28,1.07-.64a11.76,11.76,0,0,0,.15-2.29c-.19-2.3,1-4.35.57-6.8-.12-.77-1.55-1.78-2.16-2.28a9,9,0,0,1-2.37-3c0-.08-.07-.16-.1-.23-.33-.64-.61-1.28-.9-1.95l-.41-.94-1.33-3,2.53-2.05c.28-.23.56-.44.83-.64l.15-.11a14,14,0,0,0-.86-3.32c-1.22-2.63-2.39-5.47-2.22-8.92-.06-.14-.12-.27-.17-.4-.19-.46-.43-1-.66-1.43-.1-.23-.21-.44-.3-.65l-1.36-2.9,2.42-2.1c1.17-1,.95-1.39.84-1.68-.61-1.63-1.15-5.1-1.77-6.73-.9-2.41-2.76-4.43-4.47-6.38s-4.61-2.38-6-4.74a2,2,0,0,0-1.2-.64c-2.21-.49-3.75-2-5.32-3.44a12.85,12.85,0,0,0-3.41-2.27c-1.29-.6-2-1.52-3.12-3.44,4.4,2.41,7.85,4.94,12,5.41a3.81,3.81,0,0,0,2.11-3.59c-.07-1.11,0-3.41-.36-4.45a13,13,0,0,1-1.23-4.48h0c-3.22-2-4.32-5.19-5.07-7.33l-.13-.39a21.71,21.71,0,0,1-1-5.33c0-.48-.08-1-.13-1.44a10.57,10.57,0,0,1,1.65-7.3,1.06,1.06,0,0,0,.21-1,21.25,21.25,0,0,1-.64-2.05,5.39,5.39,0,0,0-.9-2.15c-.59-.72-1.08-2.62-1.67-3.34-1.92-2.35-4.6-4-6.54-6.34a11.62,11.62,0,0,0-4.12-3.5c-1.68-.73-3.38-1.4-5.06-2.14-.64-.29-1.4-.55-1.43-1.64a4.34,4.34,0,0,1,.86-.09c2.57,0,4.27,2.39,6.61,2.84a34.8,34.8,0,0,1,2.2-2.95,5.11,5.11,0,0,0,1.34-3.81,18.88,18.88,0,0,0-.28-4.13c-.65-2.39-2-7.22-3.19-9.37a3.8,3.8,0,0,0-.57-.56,7.66,7.66,0,0,0-.75-.56l-.63-.45-2.68-2,1.29-3.07,0-.11a16.74,16.74,0,0,0,1-2.54,16.54,16.54,0,0,0-.56-2.7,12.9,12.9,0,0,0-.92-2.58,21.65,21.65,0,0,1-2-7.09c-.4-3.24-1.07-6.6-3.32-9.27l-1.73-2,1.1-2.44a2.05,2.05,0,0,0,.08-.19,10.74,10.74,0,0,1-1.51-3.42,7,7,0,0,1,1.23-6.09,6.77,6.77,0,0,1,7-2.51c5.36,1.34,8.51,4.45,9.36,9.25a15.87,15.87,0,0,0,2,5.76,11.6,11.6,0,0,1,1.52,5l0,.29c.16,1.19.43,2.41.72,3.72,0,.1,0,.2.07.31a18.6,18.6,0,0,1,3.43,4.63,8.73,8.73,0,0,1,4.52,4.6l2.27,5.14-5.56.79-.32,0-.17,1.22a39.71,39.71,0,0,0,3.27,6.7,10.25,10.25,0,0,1,1.31,4.16,66.66,66.66,0,0,1,.39,9.23,6.93,6.93,0,0,0,1.64,4.52c.07.09,3.86,6.39,4.63,7.35,1.94,2.42,4.51,4.1,6.86,6,.91.76,2.07,1.07,2.88,2.16s2.26,1.41,3.35,2.21c.41.31.57,1,.87,1.49-1.05,1.18-2,2.21-2.77,3.14l-4.09-2.83c-1.21-.84-2.09-2.24-3.9-2.38-.35,1.1-.67,2.09-1,3.23.82,1.57,1.58,3.28,2.55,4.79a23.61,23.61,0,0,1,1.18,2.36,26.28,26.28,0,0,1,1.74,7.08c0,.23.1.54.17.86a11.92,11.92,0,0,1,.38,3.58,19.46,19.46,0,0,1,1.12,4.05,16.77,16.77,0,0,0,.43,1.89c.82,2.66,1.95,5.39,2.94,7.8a28.13,28.13,0,0,1,1.64,5.7c.71,3.94,1.58,7.08,3.53,9.65a4.53,4.53,0,0,1,.87,3.22v3.83l-3.49.4a6,6,0,0,0,0,.66v1.68c1,1,2,2,2.94,3.1a9.2,9.2,0,0,1,2.2,3.4l0,.08a8.81,8.81,0,0,1,3,3.5l.15.26.4.72c.7,1.24,1.4,2.47,2.09,3.71a2.84,2.84,0,0,0,.3.49,6.79,6.79,0,0,1,2.64,2.32,5.19,5.19,0,0,1,.48,5,4.91,4.91,0,0,1-4.34,2.83,7.34,7.34,0,0,1-1.27,1.21,13.91,13.91,0,0,1,1.18,1.87l.17.3c.09.15.17.3.25.45s.18.34.25.45a34,34,0,0,1,4.41,5.06l1,1.34a43.65,43.65,0,0,1,7.74,15l.48,1.67-.82,1.53-1.88,3.52-1.11,2.08a25.36,25.36,0,0,0,3.19,8,28,28,0,0,1,2.55,4.8c.05.14.11.29.17.44a9.38,9.38,0,0,1,.74,6.14,1.12,1.12,0,0,0,.05.13c1.08,3.05,1.91,6.14,2.72,9.13.91,3.38,1.87,6.53,3,9.66.7,2,1.15,6.56,2.56,8.16,1.8,2.05,4.93,2.37,8,2.77,1.58-.94,3.44-2,5.24-3.15a3.17,3.17,0,0,0,1.67-3.07c-.06-.61,0-1.24,0-1.85s-.17-1.09-.25-1.58a2.19,2.19,0,0,1,.93-.23,2.62,2.62,0,0,1,1.71.82,20.14,20.14,0,0,0,8.6,4.11c.44.11.87.25,1.32.39l2.23-1c.9-1.22.05-2.75,1.34-3.57a11.16,11.16,0,0,1,1.37.31c2.87,1,5.45,2.67,8.32,3.7a9.32,9.32,0,0,0,3.21.71h.35c.65,0,1.31-.07,2-.07s1.14,0,1.71.06a3.92,3.92,0,0,1,2.18.57c2.21,2,5.08,2,7.7,2.7l.18,0a2.79,2.79,0,0,0,1.39-.62,3,3,0,0,0,1-2.91c-.12-.9-.47-1.77-.65-2.67a3.35,3.35,0,0,0-2-2.39c-2.52-1.32-2.56-1.35-4.57-3.85h.42c2.56,0,4.55,1.52,6.34,3a65.84,65.84,0,0,0,7.09,5,7.27,7.27,0,0,0,4,1.19c.42,0,.91.14,1.27-.1,1.76-1.15,3.54-5.22,4.51-7.07a38.35,38.35,0,0,0,4-16.23,18.51,18.51,0,0,1-3.29-1.45c-1-.69-1.69-1.79-2.62-2.59-1.85-1.6-3.77-3.14-5.67-4.68-1.31-1.06-3.07-1.85-3.88-3.2-1.36-2.27-3.5-3.31-5.49-4.68a5.91,5.91,0,0,1-2-1.79,6,6,0,0,0-3.77-3.11,1.22,1.22,0,0,1-.29-1.1,1.51,1.51,0,0,1,1.07-.39h.13a2.33,2.33,0,0,1,1.23.55,27.57,27.57,0,0,0,5,3.23c1.86,1,3.4,2.6,5.15,3.84a8.74,8.74,0,0,0,2.85,1.45,3.55,3.55,0,0,1,2.77,2.13,2.87,2.87,0,0,0,3,1.75,11,11,0,0,1,4.07.5,2,2,0,0,0,.71.13,3.22,3.22,0,0,0,2.41-1.52,5.75,5.75,0,0,0,.74-5.72,12.21,12.21,0,0,0-3.71-5.17c-4.23-3-8.12-6.51-12.62-9.16-.3-.18-.44-.63-.83-1.23a6.69,6.69,0,0,1,1.56.21c1.67.7,3.28,1.53,4.9,2.35a23.58,23.58,0,0,0,5.26,1.5,55.59,55.59,0,0,1,8.39,2.17,1.62,1.62,0,0,0,.58.11,3.62,3.62,0,0,0,2.55-1.57c1.18-1.56,1.3-6.15-.51-7.86-2.62-2.49-4.54-5.82-8.21-7.19a14.35,14.35,0,0,1-3.18-2.32l.85-.41c1.92-1,3.77-2.11,3.73-4.76,0-.47.56-.8,1.11-.8a1.49,1.49,0,0,1,.36.05,17.21,17.21,0,0,1,3.39,1.34,11.24,11.24,0,0,0,4.79,1.39c.44,0,.83.06,1.16.06,2,0,2.31-.72,3.28-3a6,6,0,0,0,.34-3.14c-.4-2.57-.94-5.11-3.17-6.91a13.12,13.12,0,0,1-1.77-2.32c.8-1.48,1.92-3,1.22-4.72a47.42,47.42,0,0,0-2.75-5l.33-4.1a2.13,2.13,0,0,1,1.12-.33c1.06,0,1.91.86,2.92.86h.07c.66,0,1.32,0,2,0,1.42,0,2.84,0,4.27,0h.68c1.56,0,2.16-.54,2.6-2.07a6.84,6.84,0,0,0,.08-4.88,8,8,0,0,1-.37-1.93c-1.28-1.33-2.7-2.26-3.33-3.56-1.11-2.32-3.87-3-4.83-5.34-.1-.23-.48-.38-.76-.49-2.7-1-5.4-2.08-8.13-3-1.23-.43-1.26-.35-2.52-2.55,2.45,1.21,3.71,1.7,5.67,1.7a33.45,33.45,0,0,0,4.46-.44c.57-.81,1.16-1.71,1.81-2.56s-.16-2.49,1-3.34c3.18.1,5.36,2.88,8.42,3.09a9.35,9.35,0,0,1,.9-.4,2.63,2.63,0,0,0,2.1-2.66c.05-2.91,1.37-5.59,1.79-8.31a35.1,35.1,0,0,1-2.08-3.7c-.69-1.66-1.47-3-3.51-3.18-.57-.05-1.07-.79-2.38-1.83,2.43.35,3.88.05,5.41.68a7.36,7.36,0,0,0,2.79.42h.82a4.46,4.46,0,0,0,4.06-2.59c1.55-3.17,2.17-6.66,3.18-10a1.65,1.65,0,0,0,0-.91c-.63-1.89,0-3.56.79-5.24a21.07,21.07,0,0,0,1.12-3c.66-2.35,1.08-4.78,1.9-7.07s1.08-4.77,2.55-6.8c.32-2.76,1.54-5.27,2.14-7.94a6.75,6.75,0,0,0-.09-1.83,12.63,12.63,0,0,1-2.61-1.93,14.82,14.82,0,0,0-6.51-4.89,14.09,14.09,0,0,1-3.44-2.28,3.49,3.49,0,0,1-1.69-2.49,3.15,3.15,0,0,1,.76-.24h.1c5.35,1.46,9.95,4.54,15,7.08.62-.71,1.55-1.29,1.74-2.06.95-3.69,2.41-7.21,3.38-10.89.36-1.38.85-2.57,0-3.94a2.58,2.58,0,0,1,.05-2.64c1.64-3.1,3.46-6.12,4.87-9.32s2.86-6.12,3.24-9.54c.24-2.14,0-4-2.05-5.22-.31-.18-.42-.7-.63-1.1,2.78-.52,2.77-.53,4.88-2.29l1.39-1.16.08-.06a19.48,19.48,0,0,1,2.89-2,6.31,6.31,0,0,1,3.07-.75,6.61,6.61,0,0,1,5.57,2.74,10.49,10.49,0,0,1,1.08,9.83C342.62,207.53,342.4,209.35,342.1,210.21ZM267,35.75l-.09,0a9.45,9.45,0,0,1-1.91-1.2,4.67,4.67,0,0,0-2.76-1.48A1.87,1.87,0,0,1,261,32.5c-1.48-1.84-3.76-2.49-5.57-3.83a55.22,55.22,0,0,0-6-3.33,4,4,0,0,1-2-2.9,26.33,26.33,0,0,0-1.62-4.2c-.06-.16.25-.46.39-.7.3.06.7,0,.87.2,1.95,2.13,4.61,3.5,6.29,5.93a2.93,2.93,0,0,0,1,.91c1.82.83,3.61,1.67,4.68,3.49,1.83.32,2.48,2.08,3.77,3.06s2.6,1.58,3.84,2.46a5,5,0,0,1,1,1.48c.06.1,0,.36,0,.39a2,2,0,0,1-.68.29Zm2.68,23.18a1.3,1.3,0,0,1-.79-.27c-3.25-3-6.53-5.94-9.72-9a55.08,55.08,0,0,0-6.75-6.11c-.08-.06-.05-.29-.07-.46a.62.62,0,0,1,.52-.33c.34,0,.68.33,1,.38a4.76,4.76,0,0,1,1.71.54,67.49,67.49,0,0,0,6.6,4,8,8,0,0,1,4.54,5.4,7.68,7.68,0,0,0,2.92,4.38,5.34,5.34,0,0,1,.83,1.07c-.28.17-.51.4-.75.41ZM329,80.29a2.33,2.33,0,0,1-2-1.58c-.41-.81-.77-1.66-1.24-2.69a11.72,11.72,0,0,1-6.38-3.93,11.3,11.3,0,0,0-4.34-3.28,5.38,5.38,0,0,1-2.74-3,1.11,1.11,0,0,1,.8-.39,1.32,1.32,0,0,1,.8.31c4,3,8,5.92,12.22,8.62a56.66,56.66,0,0,1,7.25,5.47,4.26,4.26,0,0,0,2.39,1.24c.4.06,1,.43,1.07.73.27,1.72,1.52,2.54,2.75,3.46,1.07.81,2,1.78,3,2.68l-.51,0a7.55,7.55,0,0,1-5-2c-1.39-1.19-2.75-2.43-4-3.75a5.06,5.06,0,0,0-3.75-2H329Zm54.28,39.53a.43.43,0,0,1-.17,0q-3.33-1.55-6.61-3.16a3.26,3.26,0,0,1-1.46-1.07c-1.27-2.43-3.89-3.41-5.56-5.39a9.16,9.16,0,0,0-4.58-3,5.28,5.28,0,0,1-3.5-2.74,4.94,4.94,0,0,0-3.83-2.94,2.26,2.26,0,0,1-1.2-.58c-2.25-2.28-5.6-3.22-7.38-6.1-.36-.58-1.24-.85-1.88-1.25-1.89-1.21-1.89-1.21-3.19-3.72a1.34,1.34,0,0,1,1-.48,1.64,1.64,0,0,1,1,.4c1.06.86,2,1.85,3,2.81a14.1,14.1,0,0,0,3.72,2.57,32.68,32.68,0,0,1,6,4.15c2.47,2,4.74,4.3,7.15,6.41a3.54,3.54,0,0,0,1.95,1H368c2.25,0,3.52,1.42,4.75,3,.48.6.89,1.26,1.41,1.81a3.18,3.18,0,0,0,1.42,1c.79.17,1.59.33,1.88,1.11a5.24,5.24,0,0,0,4.12,3.3c1.61.35,2,1.51,2.7,2.7-.44.06-.74.17-.95.17Zm-96.15,19.62c-3.11-2.28-5.84-4.23-7.92-7a5.49,5.49,0,0,0-2.08-1.79c-2.08-.87-3.43-2.54-4.92-4.08s-2.82-3.23-4.92-4.07a3.44,3.44,0,0,1-1.39-1.18c-2.67-3.8-6.64-6.29-9.69-9.72a28.23,28.23,0,0,1-3.19-3.93,4.58,4.58,0,0,1,.7-.29h0c2.77,2.4,6,4.32,8.28,7.26a10.52,10.52,0,0,0,1.78,1.43c1.17,1,2.61,1.79,3.42,3a16.78,16.78,0,0,0,4.59,4.42c1.88,1.31,3.1,3.41,5.25,4.41a.73.73,0,0,1,.33.32c1.48,3.45,4.71,5.12,7.44,7.29a4.74,4.74,0,0,1,2.27,3.87ZM131.44,205a2.32,2.32,0,0,1-.46,0,22,22,0,0,1-5.22-1.47c-1.18-.55-2.06-1.74-3.49-3l1.73-1.74,10.05,5.91c-1.13.13-1.93.36-2.61.36Zm234.72,17.42a4.11,4.11,0,0,1-2.61-1.14,21.14,21.14,0,0,0-7.87-4.44,4,4,0,0,1-1.48-1c-1.65-1.54-3.08-3.38-5.34-4.14-.24-.08-.44-.45-.52-.72a1.16,1.16,0,0,1,.07-.86,1,1,0,0,1,.68-.38h.07c1.57.44,3.21.63,4.19,2.31a7.45,7.45,0,0,0,3.13,2.58,30,30,0,0,1,6,4.06,40.2,40.2,0,0,0,5.21,3.38,3.6,3.6,0,0,1-1.5.35Zm-151.79,26a2.72,2.72,0,0,1-1.29-.28c-4-2.23-8.41-2.35-12.78-2.54a22,22,0,0,1-4.92-.91c-4.13-1.12-8.22-2.36-11.83-4.75-1.41-.93-3-.46-4.61-1a17.64,17.64,0,0,0-3.16-2.93c-2.83-1.79-6-3-8.52-5.33a3.82,3.82,0,0,0-1.63-.75c-2.41-.61-4-2.9-6.49-3.25l-2.9-3c.61-.07,1-.21,1.4-.21a.64.64,0,0,1,.28.05c2.13.78,4.48,1.09,6.25,2.7a3.35,3.35,0,0,0,2.46.77h.3a5.5,5.5,0,0,1,3.33.81c2.51,1.78,5.59,2.37,8.17,4a5.38,5.38,0,0,0,3,.83h.1a8.13,8.13,0,0,1,2.58.7,14.07,14.07,0,0,0,4.7,1.27h.2a3.33,3.33,0,0,1,2,.74c1.66,1.48,3.74,2,5.71,2.79,3.41,1.32,6.92,2.36,9.74,4.87a7.38,7.38,0,0,0,2,1.08c1.91.87,3.84,1.71,5.78,2.55.82.36,1.66.68,2.55,1a1.24,1.24,0,0,1-1.29.74h-.65a4.07,4.07,0,0,1-.5,0Zm-151.14,0a1.11,1.11,0,0,1-.89-.42,17.19,17.19,0,0,0-5-3.75,50.25,50.25,0,0,1-5.14-4,3.13,3.13,0,0,1,1.17-.24,5.34,5.34,0,0,1,2.39.82c1.8.89,2.78,2.68,4.56,3.62a25,25,0,0,1,4.11,3.37,1.67,1.67,0,0,1-1.2.6Zm162.56,2.64c-2.08,0-3.78-1-5.57-2.3l4.42-2.52a15.3,15.3,0,0,0,1.37,2.41,18.83,18.83,0,0,0,2.29,1.94,7.23,7.23,0,0,1-2.51.47ZM28.54,283.23a1.64,1.64,0,0,1-.45-.05c-2.39-.65-4.17-2.39-6.22-3.63-.64-.39-.9-1.41-1.33-2.14l.65-.49a12.17,12.17,0,0,1,3,1.9c1.5,1.71,4.21,1.88,5.18,4.38-.28,0-.56,0-.83,0Zm209.3,147a3.12,3.12,0,0,1-2-.7,63.72,63.72,0,0,0-5.2-3.69c-2.56-1.66-4.73-3.79-7.35-5.39-3.49-2.13-6.67-4.78-10-7.22a12.26,12.26,0,0,0-2.2-1.59c-1.73-.75-3-2.31-4.58-3a15.34,15.34,0,0,1-4.42-3.16,8.73,8.73,0,0,0-1.52-1c-4-2.29-7.29-5.46-11.06-8a1.66,1.66,0,0,1-.67-1.13c0-.32.43-1,.59-1h0c1.32.27,2.62.67,4,1,.63,1.4,1.11,2.84,2.69,3.55,1.79.8,3.47,1.84,5.21,2.77.27.14.66.18.8.4,1.41,2.18,4,2.66,5.85,4.2,2.29,1.95,5,3.43,6.75,6a2.76,2.76,0,0,0,2.37,1.2,3.68,3.68,0,0,1,2.4,1.18c1.61,1.4,3.32,2.69,5,4,.94.79,1.78,1.69,2.74,2.45,1.43,1.14,2.77,2.64,4.42,3.2a10.39,10.39,0,0,1,5,3.77l1.59,2-.36,0Z"/><path d="M910.12,222.64c-.32,1.65-.77,3.26-1.15,4.83a8.17,8.17,0,0,1-.84.19.32.32,0,0,1-.14,0,3,3,0,0,0-1.71-.58,3.8,3.8,0,0,0-2.13.78c-2.15,1.47-4.35,2.87-6.52,4.31a3.05,3.05,0,0,0-1.22,3.64,6.42,6.42,0,0,0,1.66,2.69c2.13,2.55,5.66,3.77,6.86,7.2.09.25.44.41.68.6,1.91,1.53,3.83,3,5.71,4.6a19.87,19.87,0,0,1,1.77,1.95l-.8,0h-.53a1.69,1.69,0,0,1-1-.18c-2.08-1.56-4.45-2.75-6.11-4.83a8.35,8.35,0,0,0-3.48-2.91c-2.29,1.14-3.3,1.63-4.44,1.63a13.39,13.39,0,0,1-3.72-.88,3.11,3.11,0,0,1-1.85-1.22,6.56,6.56,0,0,0-3.42-2.24c-1.13-.44-2.32-.71-3.49-1.06a41.71,41.71,0,0,1-4,2.26,4.14,4.14,0,0,0-2.5,2.51,5.89,5.89,0,0,1-.85,1.63,3.28,3.28,0,0,0,0,4.25c.44.63.84,1.28,1.32,1.88,1.82,2.26,3.7,4.48,5.52,6.75,1.05,1.31,2,2.68,3,4,0,0-.16.21-.31.4-.38-.11-1-.1-1.18-.37-2.22-2.84-5.35-4.53-8.25-6.5a10.9,10.9,0,0,1-2.26-1.59c-1.76-2.08-4.26-2.89-6.55-4.14-1.52.76-3,1.48-4.53,2.27a13.58,13.58,0,0,0-2.32,1.47c-2,1.65-2.09,3.52-.32,5.53.57.66,1.56,1,1.51,2.09-2.75.56-2.75.56-4.88,2.17-2.58,2-2.68,2.71-.79,5.63.75,1.15,1.5,2.3,2.24,3.45,3.39,1.68,5,5.4,8.29,7.21.14.08.18.62.06.82a.91.91,0,0,1-.65.36l-.1,0a3.35,3.35,0,0,1-1.52-.86c-2-2.81-5-4.44-7.71-6.48-2.27-1.72-4.89-3-6.58-5.56a3.25,3.25,0,0,0-2.77-1.57,4.21,4.21,0,0,0-2.09.61c-.8.46-1.51,1.06-2.26,1.58-3.25,2.23-3.19,2.21-2,5.85a6.54,6.54,0,0,0,2.25,2.82c1,.9,2.37,1.52,2.39,3.13-1,.79-1.93,1.54-2.86,2.32-.49.41-.89,1-1.62,1a1.61,1.61,0,0,1-.37,0,26.8,26.8,0,0,0-3.51-2.87,19,19,0,0,1-3.49-2.94,2.3,2.3,0,0,0-1.59-.63,2.21,2.21,0,0,0-1,.24c-2.68,1.4-5.28,3-7.9,4.5a2.41,2.41,0,0,0-.58.71c-.64.85-1.27,1.71-1.93,2.6,1.09,3,2.43,5.63,5.56,7a4.31,4.31,0,0,1,1.62,1.56,24.21,24.21,0,0,1,2.18,3.52,20.25,20.25,0,0,0,5.93,7.51,2.93,2.93,0,0,1,1.11,1.36,6.33,6.33,0,0,0,1.79,2.62c2.18,2.57,5.32,4.17,7.12,7.1a1.55,1.55,0,0,0,.7.59,5.65,5.65,0,0,1,3,2.72c.72,1.47,2.52,1.9,3.13,3.19.78,1.66,2.11,2.6,3.34,3.72a12.58,12.58,0,0,1,2.08,1.8,49.72,49.72,0,0,0,5,5.37c1.76,1.9,3.23,4.08,5.5,5.47a3.88,3.88,0,0,1,1.18,1.41,5.18,5.18,0,0,0,2.74,2.33,3.37,3.37,0,0,1,2.37,2.58,2.62,2.62,0,0,0,1.59,2.13,7.79,7.79,0,0,1,2.73,2.39c2.8,3,5.62,6.06,8.42,9.1a26,26,0,0,0,3.34,3.66c1.57,1.15,2.78,2.33,3,4.34,0,.12.17.26.29.35,1.55,1.26,2.25,3.27,4,4.35s2.54,3.43,4.06,4.93a4.09,4.09,0,0,0,1.07.88,6.33,6.33,0,0,1,3.23,4.23c.18.61,1.1,1.15.17,2-.39-.5-.72-1-1.14-1.45-1.46-1.54-2.74-3.37-4.47-4.52a31.8,31.8,0,0,1-5.59-5.4c-1.14-1.23-2.14-2.6-3.3-3.8s-3.07-2.06-3.92-3.8c-1.94-.86-3-2.5-4-4.3-.33-.62-1.14-1-1.76-1.44-.36-.27-1-.38-1.13-.73-1.34-2.77-4.22-4-6.19-6.07-1.47-1.58-3-3.1-4.61-4.54a31.56,31.56,0,0,1-5.21-5.8c-1.44-2.12-4.24-3-5.24-5.54-.12-.32-.81-.38-1.18-.64-.63-.43-1.58-.81-1.76-1.41-.66-2.12-2.63-2.88-4-4.23s-2.76-2.39-4.06-3.66a30.77,30.77,0,0,0-7.7-5.76,4.89,4.89,0,0,1-2.57-2.53,3.88,3.88,0,0,0-.78-1.13c-2.82-3-6.64-4.95-9.24-8.24a3.16,3.16,0,0,0-1.2-.66,18.88,18.88,0,0,1-4.48-3.15c-2.32-1.95-4.07-4.67-7.22-5.56-.13,0-.23-.19-.34-.3a32.06,32.06,0,0,0-7.94-5.41,12.87,12.87,0,0,1-3.94.87,4.62,4.62,0,0,1-2.29-.56c-.89-.49-5.49,1-7.26,1.16-7.44.76-5.72,6.35-6.81,8.94-.35.84.12,1.85,0,2.76a5.08,5.08,0,0,0,2.14,4.81,14.67,14.67,0,0,1,1.65,1.77,6.83,6.83,0,0,0-3.63,5.18c-.31,1.76-.15,3.36,1.37,4.59a12.41,12.41,0,0,1,1.32,1.63l-1.53,0a4.79,4.79,0,0,0-.68,0c-1.65.19-2.22.69-2.3,2.3-.14,3.07-.16,6.15-.27,9.22a4.06,4.06,0,0,0,1.43,3.26c1.11,1,2.19,2.1,3.44,3.3-.74.22-1.16.38-1.59.47-1.94.42-2.81,1.2-3,2.83-.1.92,0,1.86-.14,2.76a4.54,4.54,0,0,0,1.6,4.53,12.6,12.6,0,0,1,4,5.55c.42,1.24,1.46,1.93,2.36,2.77a3.33,3.33,0,0,1,.81,1.46c0,.13,0,.19-.19.19a2.26,2.26,0,0,1-1.29-.69c-1.22-1.16-2.4-2.37-3.64-3.51a7.86,7.86,0,0,0-1.53-1,.57.57,0,0,0-.24-.05c-.61,0-1.69.72-1.52,1.14,1,2.45,0,4.8-.23,7.2-.1,1.06,0,2.14-.06,3.21a3.51,3.51,0,0,0,1.07,2.91,2.36,2.36,0,0,1,.77,1.55c-.07,1.51.43,3,.24,4.49a43.83,43.83,0,0,0-.1,4.59c1.43,1.5,0,2.82-.27,4.22a4,4,0,0,0,0,.92c0,2.92,0,5.83,0,8.75,0,5.84,0,11.69.06,17.53a107.64,107.64,0,0,0,1.1,12.8,7.14,7.14,0,0,0,.6,2.18c1.19,2.61,2.44,5.18,3.76,7.94a10.64,10.64,0,0,1,1.49-.09c.89,0,1.79.07,2.68.07a8.31,8.31,0,0,0,3.2-.53c.26-1.13.48-2.13.77-3.41.68.45,1.19.73,1.64,1.09.84.68,1.59,1.47,2.47,2.08a4,4,0,0,0,2.32.7,5,5,0,0,0,3.19-1.2,6.71,6.71,0,0,0,2.31-4.21A3.07,3.07,0,0,1,815,434a2.32,2.32,0,0,1,1.8.95,15,15,0,0,0,2.1,2.38,21.42,21.42,0,0,0,7.56,2.9,13.13,13.13,0,0,0,1.54.07h1.39a13.41,13.41,0,0,1,1.68.08,7.15,7.15,0,0,0,1,.07,5.61,5.61,0,0,0,4.32-1.85,5.67,5.67,0,0,0,2.14.59,2.31,2.31,0,0,0,1.79-.86c1.3-1.43,2.67-2.8,4.05-4.24.44.39.89.63,1.09,1,1.49,2.71,3.34,4.39,5.92,4.39a8.24,8.24,0,0,0,3.17-.72,4.5,4.5,0,0,1,1.72-.38,2.49,2.49,0,0,1,1.8.69c1.51,1.47,3.32,1.4,5.16,1.41h0a6.58,6.58,0,0,0,4.16-1.67c.94-.75,1-1.85,1.07-2.93,0-.26.29-.5.65-1.09,1.59,1.41,4,.64,5.64,2.46a1.48,1.48,0,0,0,1.06.32,1.91,1.91,0,0,0,.66-.1,25.8,25.8,0,0,0,3.74-1.72c1.43-.79,2.37-1.77,1.49-3.76a10.06,10.06,0,0,1-.62-3.12,6.16,6.16,0,0,0-1.43-3.32c-1.71-2.15-3.52-4.24-5.26-6.37a4.93,4.93,0,0,1-.59-1.22c0-.08.08-.26.17-.35a.61.61,0,0,1,.35-.19h0a5.36,5.36,0,0,1,3,2,38.06,38.06,0,0,0,4.26,4.17c1.67,1.21,2.46,3.11,4,4.33a10.25,10.25,0,0,0,1.42,1.17c2.79,1.42,4.65,3.89,6.84,6a6.38,6.38,0,0,0,1,1c2.34,1.36,4.51,3.34,7.22,3.34a6.29,6.29,0,0,0,2.75-.67,1.49,1.49,0,0,1,.67-.13c.37,0,.76.07,1.13.07h0c1.69,0,3.38-.06,5.08-.07a13.07,13.07,0,0,0,6.06-1.47c.39-2.82.44-2.84-.15-4.14-.51-1.12-1.16-2.17-1.73-3.25-1.05-2-.91-2.69.83-3.85,1.53-1,3.09-2,4.57-2.93.3-.85.57-1.61.83-2.36l4.45,4.85c1.72.32,2.21,2,3.34,3s2.42,2.34,3.64,3.49c1.9,1.78,3.74,3.88,6.2,4.62,2.81.84,5.35,2.22,8.09,3.14a9.3,9.3,0,0,0,2.18.63c.69,0,1.37.06,2,.06a18.57,18.57,0,0,0,6.43-1,8.63,8.63,0,0,1,3-.72,4.07,4.07,0,0,1,2.21.65c.5.31,1.27.17,1.76.48a3.61,3.61,0,0,0,1.94.63c3.9.13,0-3.62-.4-4.72-.88-2.12-3.14-3.35-4.32-5.37a7,7,0,0,0-2-1.86c-.73-.51-1.71-.71-2.37-1.28s-1.25-1.69-2-2.4a9.81,9.81,0,0,0-2-1.08c-.4-.21-1-.35-1.15-.69-1.82-3.46-5.66-5.13-7.54-8.6-.76-1.42-2.36-2.38-3.62-3.52-.44-.4-1.1-.61-1.45-1.06-2.09-2.67-5.16-4.33-7.16-7.1-.5-.69-1.52-1-2.25-1.54-2.1-1.58-4.08-3.3-5-5.85-.13-.33.11-.8.16-1.09a19.25,19.25,0,0,1,7.44,6.06,7,7,0,0,0,1.42,1.13,9.21,9.21,0,0,1,2.12,1.7c1.67,2.49,4.15,4,6.47,5.73s4.64,3.13,6.47,5.13c2.92,3.2,6.47,5.65,9.47,8.71,1.49,1.51,3.44,2,5.33,2.52a1,1,0,0,0,.3,0,3.9,3.9,0,0,0,1.79-.67,3.57,3.57,0,0,0,1.12-1.43c.87-1.65.51-3.55.94-5.31a13.53,13.53,0,0,0,.21-3.19,2.21,2.21,0,0,0-.4-1.28,16,16,0,0,0-3-3.42,8.86,8.86,0,0,1-3.35-3.65c-.79-1.83-3.15-1.86-4.24-3.4-.35-.5-.64-1-1-1.55-.5-.77-1-1.52-1.59-2.36l1.16-.42a7.44,7.44,0,0,0,1.26-.53,2.18,2.18,0,0,0,1-2.39c-.7-1.85-1.12-4-2.34-5.42s-1.87-3.11-3.08-4.47-2.37-2.79-3.56-4.17a14.17,14.17,0,0,1-1.54-1.67,23.36,23.36,0,0,1-1.1-2.5c-.27-.59-1.3-.82-.88-1.76h.56a.66.66,0,0,1,.36.07c2.25,1.57,4.48,3.18,6.72,4.76a8.58,8.58,0,0,1,3.1,3.34,6.57,6.57,0,0,0,3.75,3.24,29.71,29.71,0,0,0,3.93,1.2.83.83,0,0,0,.22,0,1.62,1.62,0,0,0,1.45-1.27,17.52,17.52,0,0,0-.41-5.91c-.63-.55-1.25-1-1.79-1.56s-1.18-1.34-1.75-2a23.93,23.93,0,0,0,1.85-3.86,29.29,29.29,0,0,0,.57-4.36,4.79,4.79,0,0,1,1-.36h.06c1.06.15,2.11.36,3.15.59a3.21,3.21,0,0,0,.6.06,2,2,0,0,0,1.93-1.36,11.27,11.27,0,0,0,.66-2.19c.59-3.48,1.26-6.93-1.35-10.05a11.88,11.88,0,0,0-2.22-2.26c-1.11-.78-2.17-1.62-3.57-2.67,3.11-1.59,6.4-2.23,8.27-4.93-.26-1.74-.46-3.4-.77-5.05-.34-1.82-2.11-2.52-3.14-3.81a5.64,5.64,0,0,1-.55-1.25,4.26,4.26,0,0,0-.62-1.2c-2.56-2.67-5-5.41-7.77-7.89-1.57-1.44-3.52-2.44-4.43-4.54a3.15,3.15,0,0,0-1.3-1.28,6.48,6.48,0,0,1-3.16-3.1,2.65,2.65,0,0,0-1.74-1.38c-1.78-.24-2.48-1.44-3.38-2.75-2.16-3.17-4.43-6.29-8.29-7.7-.5-.18-.86-.82-1.24-1.28-.77-1-1.43-2-2.28-2.88a24.18,24.18,0,0,0-4-3.76c-1.75-1.14-2.12-3.34-3.87-4.4-.52-.31-.89-.89-1.42-1.16-2.55-1.27-4.09-3.59-6.49-5.78h1.15c.27,0,.45,0,.55.12a46.21,46.21,0,0,0,5.85,5.13c1.85,1.34,3.44,3,5.6,3.95a1.32,1.32,0,0,1,.7.56c.64,1.37,1.89,2,3.11,2.61a4.34,4.34,0,0,1,2,1.81,5.38,5.38,0,0,0,1.55,1.68c3.16,2.42,6.41,4.72,9.51,7.2a19.71,19.71,0,0,0,6.27,3.58c2.43.78,4.16,2.61,6.05,4.1a4.88,4.88,0,0,0,2.82,1.39c.94,0,1.77-.63,3.26-1.54a7.44,7.44,0,0,0,1.05-.91c1.61-1.46,2.07-3,.9-4.89a8.77,8.77,0,0,1-1.19-5.1c1.07-.38,1.52-1.46,2.14-2.49a11.4,11.4,0,0,1,2.57-2.33,21.34,21.34,0,0,1-.16-2.49c.14-2.2-.69-4.21-1.15-6.29-1.77-1.49-2.22-3.92-4.12-5.42a32.27,32.27,0,0,0-5.66-3.91c-1.4-.68-1.89-1.93-2.62-3.06a.83.83,0,0,1,.1-.8.91.91,0,0,1,.61-.24.32.32,0,0,1,.18,0c2,1.11,4,2.27,5.73,3.29l4.63-1.17c1.38-1.38,1.21-3.17,1.67-4.77a4.31,4.31,0,0,0-1.48-4.91c-1.17-1-2.39-1.92-3.61-2.86a2.72,2.72,0,0,1-1.41-2.21c.1-.12.17-.32.29-.35A6.6,6.6,0,0,0,971.5,261a3.32,3.32,0,0,1,.38-1c-.21-2.57-2.28-2.6-3.12-3.84s-1.76-2.71-2.58-4c1.93-.86,3.89-1.71,5.82-2.62a2,2,0,0,0,1.2-1.84,25.34,25.34,0,0,1,1.26-6.29c.77-1.92,3-1.83,3.77-1.91a7.8,7.8,0,0,1,4.85-2,8.55,8.55,0,0,1,1-.06,13,13,0,0,1,4.06.77c.42.13.82.26,1.13.32a7.42,7.42,0,0,1,5.32,3.88c.33.6.6,1.19.81,1.65l.2.44a4.89,4.89,0,0,1,.76,1.59c0,1-1.62,2.43-2,3.33-1.9,4.69-.22,9.76.7,14.58a3.35,3.35,0,0,0,.89,1.57c2.22,2.32,3.71,5.33,6.6,7,1,2,3.12,2.88,4.62,4.39,3.44,3.48,6.83,7,10.35,10.4,1.43,1.38,2.75,2.88,4.16,4.28s3.09,2.93,4.61,4.42c1.32,1.28,2.58,2.63,3.9,3.91.88.85,1.82,1.65,2.76,2.44.46.39,1.21.61,1.45,1.09,1.17,2.45,3.39,4,5.16,5.86s3.11,3.83,5,5.29a63.76,63.76,0,0,1,9.39,9.41c.12.14-.08.54-.17,1.05a6.41,6.41,0,0,1-1.92-1.1c-1.55-1.94-3.86-3.07-5.35-5-2.74-3.51-7.08-5.42-9.27-9.45a1.68,1.68,0,0,0-.69-.6c-2-1-2.94-3.44-5.31-4.1-.6-.17-1-1.08-1.48-1.67a19.52,19.52,0,0,0-2.33-2.82,65.31,65.31,0,0,1-7.89-7,56.07,56.07,0,0,0-6.2-5.48,5.68,5.68,0,0,0-1.4-.6c-1.79,1-3.66,2.07-5.49,3.17a2.61,2.61,0,0,0-1.33,2.73,5,5,0,0,1-.35,1.4L1001,290.9a5.47,5.47,0,0,0-3.89-1.84,5.27,5.27,0,0,0-1.85.36,8.32,8.32,0,0,0-.3,7.18,7.75,7.75,0,0,1,.49,1.77,7,7,0,0,0,2.16,4c.67.63,1.26,1.34,1.9,2a58,58,0,0,0,5.31,4.36c3.6,3,6.95,6.37,10.4,9.58,1.57,1.46,3,3.08,4.72,4.38a41.82,41.82,0,0,1,9.19,9,11.73,11.73,0,0,0,1.59,1.64c2.1,2,4.54,3.72,6.22,6,1.46,2,3.94,3,4.78,5.45a1.22,1.22,0,0,0,.7.57c2.38.77,3.72,2.73,5,4.61,1.46,2.16,3.88,3.55,4.75,6.16a1.32,1.32,0,0,0,.62.66c2.61,1.47,3.83,4.35,6.18,6.08a9.9,9.9,0,0,1,1.43,1.73c-.4.06-.71.19-.91.19a.24.24,0,0,1-.15,0c-1.72-1.27-3.36-2.67-5.14-3.86-1.24-.83-1.49-2.38-2.56-3.2a44.45,44.45,0,0,0-3.92-2.27c-.37-.23-.56-.73-.89-1.05-3-2.9-5.71-6.12-9-8.58s-5.81-5.47-8.68-8.22c-1.53-1.47-2.34-3.66-4.57-4.43-.36-.12-.61-.68-.81-1.09a13.88,13.88,0,0,0-4.37-4.67,14.44,14.44,0,0,1-3.9-3.85c-1.05-1.73-3-2.54-4.05-4.32-.56-.93-2-1.41-3.06-1.94a4.86,4.86,0,0,1-1.83-2,26.58,26.58,0,0,0-5.67-5.73c-1.11.21-2,.86-3,.86a2.15,2.15,0,0,1-1.1-.3,1.08,1.08,0,0,0-.49-.14,1.27,1.27,0,0,0-1,.74c-.78,1.49-1.4,3.05-2.08,4.57,1,3.43,1.35,6.93,2.38,10.28a21.51,21.51,0,0,1,1.15,6.28,8.18,8.18,0,0,0,2.18,5.37,48,48,0,0,0,8.42,8.44,6.36,6.36,0,0,1,2.49,4.73,25.19,25.19,0,0,1-.07,3.42c-.93-.45-1.62-.71-2.24-1.09-1.3-.81-2.13-2.52-3.84-2.52l-.37,0a35.92,35.92,0,0,0-4.88,1.13,5.43,5.43,0,0,0-1.55,1,1.9,1.9,0,0,0-.58.71,6.06,6.06,0,0,0,2.3,7.25c2.33,1.45,2.05,2.28.42,3.81-.64.61-1.37,1.14-2.23,1.84.6,3.15,2.58,6,1.73,9.43,1,1.19,1.85,2.62,3.08,3.41,1.84,1.18,2.59,2.95,3.42,4.75.06.14-.22.44-.34.67l-3-1.39c-.68.2-1.39.45-2.12.64s-1.9-.13-2.65,1.23a42.88,42.88,0,0,1,.74,4.61,10,10,0,0,0,2.15,5.49,45,45,0,0,0,5.72,6.58c1.28,1.12,1.69,3,3.36,3.65a5.7,5.7,0,0,1,2.49,2.6,33.15,33.15,0,0,0,2.49,3.3,28.89,28.89,0,0,0,5.47,5.52,4,4,0,0,1,2,2.8,2.76,2.76,0,0,1-1.14.27,2,2,0,0,1-1.52-.75c-.81-.91-1.46-2-2.33-2.82-2.76-2.66-5.67-5.18-8.38-7.89a31.16,31.16,0,0,0-6-4.91c-2.76,1.38-2.72,1.41-3.32,4.36a10.5,10.5,0,0,1-.7,1.86c1.11,3.1,2.11,5.94,3.12,8.76l-2.31,1c0,2.74,0,5.35,0,8a4.39,4.39,0,0,0,.61,2.16c1.44,2.28,1.91,5.17,4.69,6.6,1.71.87,4.77,3.33,6.61,3.85h.05c1.09,0,1.46-.92,2.18-1.61,1,.74,1.9,1.5,3,2.34h.35c1.39,0,2.83.25,4.27.25a6.65,6.65,0,0,0,4.71-1.66c-.05-.89-.1-1.88-.16-3,3.68,0,5.54,3.24,9,4.55.45,0,.91,0,1.37,0,1.79,0,3.68.21,5.59.21a12.93,12.93,0,0,0,6.34-1.37,2.22,2.22,0,0,0-.53-2.7,3.83,3.83,0,0,1-1.4-3.26c2.11,1,4.08,2,5.57,3.89,1.25,1.56,2.89,3.11,4.94,3.12,1.68,0,3.4.32,5.1.32a8.2,8.2,0,0,0,4-.88c.27-.14.58-.21.84-.37a2.45,2.45,0,0,0,.77-2.88c-.61-1.06-1.28-2.08-1.9-3.13-.22-.37-.4-.8.36-1a6.54,6.54,0,0,1,3,2.63c1.47,2.56,4.07,3.64,5.94,5.34h3.52l4.06,0c.27,0,.53-.28.88-.47l.88-1.73a2.43,2.43,0,0,0-.07-.74l-3.34-6.47c0-.06.19-.23.31-.38a10.39,10.39,0,0,0,1.19.63c1.43.53,1.7,2.2,2.83,2.92a24.42,24.42,0,0,0,3.76,1.52,2.62,2.62,0,0,1,.68.62,16.71,16.71,0,0,1,1.62,1.64,4.69,4.69,0,0,0,3.94,1.85,8.68,8.68,0,0,0,1-.06,10.35,10.35,0,0,0,5.88-2.44,23.54,23.54,0,0,0,.12-2.76c-.15-1.93.74-3.2,2.49-4.25l10.17,8.94a4.67,4.67,0,0,0,3.21,1.32h.12c1.7,0,3.4-.08,5.09-.08,1.23,0,2.45,0,3.67.08h.31a5.36,5.36,0,0,0,4.66-2.73,2.42,2.42,0,0,0,.34-2.18c-.49-1.75-1-3.49-1.43-5.25a.85.85,0,0,1,.3-.76.7.7,0,0,1,.3-.06,1.14,1.14,0,0,1,.56.15,2.71,2.71,0,0,1,1,.9,14,14,0,0,0,7.67,6.24,21.22,21.22,0,0,1,2,1,12.25,12.25,0,0,0,2.11-1.15,12.78,12.78,0,0,0,2.18-2.29,6.49,6.49,0,0,0,.58-2c2.05,2.59,3.74,5.21,6.7,6.44,1.2,1.58,2.84,1.82,4.57,1.82h.87c2.3-.07,4.61-.08,6.92-.13h.46a4.76,4.76,0,0,0,1.37-.14,1.6,1.6,0,0,0,.93-.89,1.47,1.47,0,0,0-.19-1.25c-1.81-1.88-3.69-3.68-5.53-5.53a6.42,6.42,0,0,1-.69-1.25,8.41,8.41,0,0,1,1.56.25,15.83,15.83,0,0,0,3.39,1.34,4.85,4.85,0,0,1,3.77,2.31,5.87,5.87,0,0,0,3.73,2.44,3.65,3.65,0,0,0,.92.13,2.23,2.23,0,0,0,1.66-.68c.43-.43.9-.84,1.32-1.29,1.36-1.44,1.58-2.71.27-4a12.07,12.07,0,0,1-2.92-5.59c-.59-2.14-.74-4.6-2.89-6.07-.3-.21-.39-.81-.47-1.24-.35-1.8-.63-3.61-1-5.41a3.23,3.23,0,0,0-.68-1.66c-1.57-1.46-1.78-3.52-2.53-5.34a3.35,3.35,0,0,1-.07-1c1.42,0,2.16.89,3.06,1.42.66.39,1.3,1,2,1.1,2,.15,3.71,1.36,5.63,1.95,2.16-2.12,2.14-4.38,1-6.79a19.43,19.43,0,0,0-3.7-5.25,10.9,10.9,0,0,1-1-1.36,3.15,3.15,0,0,1,1.6-.34h.75a2.58,2.58,0,0,0,1.88-.59,4.6,4.6,0,0,0,.35-1.15c.31-4.89-2.54-8.3-5.55-11.6-.6-.65-1.61-.81-2-1.8a20.22,20.22,0,0,0-1.8-2.81c3.72,2.21,6.26,4.89,10,5.93.34-1.73.68-3.21.9-4.7a28.69,28.69,0,0,0,.18-3.22c0-1.68,0-3.38.08-5.06a68.19,68.19,0,0,0-.2-11.21c-1-1.62-2.6-2.46-3.27-4a1.87,1.87,0,0,1,.65-.13c1,0,1.53,1,2.36,1.19a1.76,1.76,0,0,0,1.27-1.71c0-2.46,0-4.92.11-7.37a25.46,25.46,0,0,1,.44-4.09c1-5.2.55-7.1-3-10.85-.64-.67-1.34-1.27-2-1.9s-1.65-1.4-2.36-2.2a34.81,34.81,0,0,0-3.7-3.38c-1.25-1.06-2.13-2.56-3.64-3.43a3.62,3.62,0,0,1-1.28-1.3,10.8,10.8,0,0,0-3.82-3.92c-1.58-1-2.14-2.45-2.53-4.22l2.1.27,1.54-2.22c1.72.41,3.26.76,4.27,2.38a3.88,3.88,0,0,0,2.33,1.35,5.66,5.66,0,0,1,4.28,3.13,3.91,3.91,0,0,0,2.59,1.77,2.19,2.19,0,0,0,.71.11,2.28,2.28,0,0,0,2.31-2.13c.11-3.07,1.39-1.92,0-4.69-.77-1.57-3.91-3.56-5.41-4.48s-3.19-1.73-4.14-3.46c-.32-.6-1.18-.91-1.81-1.32-1.92-1.26-4.15-2.22-5.72-3.82a26.87,26.87,0,0,0-7.15-4.91,29,29,0,0,1-4.57-3c-3-2.35-5.78-5-9.1-7a10.21,10.21,0,0,1-3.53-2.86,3.65,3.65,0,0,0-2.23-1.49,6.06,6.06,0,0,1-2-1.05c-1.12-.81-2.14-1.75-3.27-2.52-2-1.38-4.1-2.67-6.15-4-2.32-1.51-4.31-3.44-6.51-5.08-2.45-1.81-5.21-3.2-7.74-4.92s-4.38-4.28-7.39-5.31c-2.11-2-4.73-3.41-6.94-5.27a29.16,29.16,0,0,0-6.2-3.89,76,76,0,0,1-12.1-7.47,90.79,90.79,0,0,0-13.43-8.72,14.43,14.43,0,0,1-4.86-3.33,5.12,5.12,0,0,0-1.48-1.06c-1.23-.66-1.35-2.78-2-3.59-2.24-2.86-2.72-2.37-2.93-3.56a7.25,7.25,0,0,1,1.44-6,6.51,6.51,0,0,1,5.15-2.52s1.84.06,2.69.06h0a5,5,0,0,0,1.09-.31c.31-.49.7-1.14,1-1.68,0-1.22-1.12-2-.84-3.44,3.26,2.65,6.27,5.2,9.4,7.59a5,5,0,0,0,3.08,1.1,5.26,5.26,0,0,0,1.62-.26,3.49,3.49,0,0,1,1.08-.18,3.56,3.56,0,0,1,2.65,1.3c2.47,2.68,5.19,5.11,7.71,7.74a64,64,0,0,0,7.35,6.89c1.8,1.37,4,2.36,5.34,4.28a12.17,12.17,0,0,0,4.46,3.85c3.14,1.58,5.37,4.51,8.73,5.76a1.93,1.93,0,0,1,1,.95c.66,1.54,2,2.2,3.36,3a48,48,0,0,1,4.93,3.34,4.67,4.67,0,0,0,2.88,1.1,4.82,4.82,0,0,0,1.31-.19,5.17,5.17,0,0,1,1.36-.16c.76,0,1.53.1,2.27.1a31.58,31.58,0,0,0,3.36-2.58c.6-.6.74-1.66,2-1.69,1.44,1.22,3.24,2.29,4.42,3.83a30.85,30.85,0,0,0,8.74,7.3c2.55,1.58,5.29,3.08,7.09,5.86h5.23c.86-.83,1.88-1.76,2.85-2.74a4.38,4.38,0,0,1,3-1.62,3.76,3.76,0,0,1,1.88.56,2.19,2.19,0,0,0,1.11.3,2.72,2.72,0,0,0,1.7-.67,25.37,25.37,0,0,0,1.38-2.63,8,8,0,0,0,.42-3.94c-.57-1.76-2.6-2.68-3.23-4.44a5.86,5.86,0,0,0-2.77-3.48c-1-.57-1-.74-1.1-3,.15,0,.36,0,.45.06,2.51,2.28,5.9,3.26,8.28,5.72.19.2.55.24.83.35a.93.93,0,0,0,.24,0c.51,0,1.24-.39,1.28-.76a16.79,16.79,0,0,1,.35-4.11c.94-2.72.59-5.48.75-8.22s-.58-5.13-3.32-6.46a2.38,2.38,0,0,1-1.07-.84,7.1,7.1,0,0,0-4.12-3.42,4.43,4.43,0,0,1-1.45-1.09c-1.76-1.72-3.49-3.46-5.22-5.2a11.15,11.15,0,0,1-3-5.09,26.54,26.54,0,0,0-5.63-10.94c-.34-.39-1-.8-.34-1.72a21.12,21.12,0,0,1,3.08,1.75c2.84,2.31,5.6,4.73,8.39,7.1a4.59,4.59,0,0,0,1.07.87,16.64,16.64,0,0,1,5.48,4.11,2.55,2.55,0,0,0,1.87.8,3.49,3.49,0,0,0,1.12-.2,13.29,13.29,0,0,0,1.71-.69,2.33,2.33,0,0,0,1.42-2.16,17.72,17.72,0,0,1,.52-2.65c.08-.42.3-1,.13-1.28a8.27,8.27,0,0,1-.77-3.56,2.94,2.94,0,0,0-.71-1.63,38.9,38.9,0,0,0-3.61-3.54c-2.46-2.06-5-4-7.52-6a2.26,2.26,0,0,1-.88-2.59,16.94,16.94,0,0,0,2.81-1.06c1.05-.61,1.93-1.51,2.93-2.21,1.67-1.17,1.65-2.81,1.42-4.55-1.66-1.92-1.85-4.93-4.61-6.06a5,5,0,0,1-2.47-2.64c-1-2.19-2.81-3.59-4.62-5a8.2,8.2,0,0,1-1.44-1.05c-.46-.55-.94-1.26.27-2a17.32,17.32,0,0,1,3.74,2.33c2.37,2.47,5.32,4.11,8,6.06a4.44,4.44,0,0,0,2.08.84c.57,0,1.15.1,1.72.1a5.29,5.29,0,0,0,2.82-.69c.34-1.65.77-3.29,1-4.95a21.76,21.76,0,0,0-.07-3.3,29,29,0,0,0-4.13-3.68c-3.17-1.93-5.72-4.62-8.75-6.7-.15-.1-.13-.46-.19-.72l2-.61,2-4.86c2.43-.77,4.75-1.52,7.09-2.23a2.61,2.61,0,0,0,2.1-2.65c0-1.53.35-3.29-.18-4.25-1.4-2.52-3.89-3.47-5.9-4.82s-3-4-5.86-4.11c-.34,0-.64-.57-1-.86-2.92-2.42-5.44-5.39-9.18-6.74a7,7,0,0,1-3.48-2.94c-1.52-2.46-3.83-3.87-6.27-5.19a13.05,13.05,0,0,1-3.08-2c-1.94-2-3.63-4.16-6.28-5.28a3.7,3.7,0,0,1-1.3-1.28,29.48,29.48,0,0,0-4.41-4.6c-2.66-2.28-5.08-4.86-7.89-7-1.81-1.4-3.33-3.18-5.06-4.71s-3.69-2.34-4.67-4.34c-1.14-2.31-3.8-2.48-5.4-4.1l-.64-.65a163.55,163.55,0,0,0-12.91-12.48c-.58-.48-1.44-1.12-1.06-2.35a3.92,3.92,0,0,1,1.14.59c2.72,2.93,6.23,4.87,9.18,7.51,2,.49,2.44,2.66,3.87,3.74s3.35,1.57,4.44,3.19a15.45,15.45,0,0,0,4.29,4,64.74,64.74,0,0,1,8.86,8,79.58,79.58,0,0,0,6.45,5.87c2.25,1.81,5,3.13,6.52,5.76a30.91,30.91,0,0,1,6,5.54,7.74,7.74,0,0,0,2,1.09,8.14,8.14,0,0,1,1.88,1.23c2.3,2.45,5,4.46,7.38,6.86a7.6,7.6,0,0,0,3.56,1.94,7.44,7.44,0,0,1,3.3,1.41,2,2,0,0,0,1.27.47,2.74,2.74,0,0,0,1.69-.69c.71-.58,1.42-1.18,2.1-1.8,1.55-1.37,2.14-3,1.11-4.92a4.07,4.07,0,0,1-.59-1.7,3.85,3.85,0,0,0-2.15-3.31,10.61,10.61,0,0,1-2.09-1.75c-1.35-1.47-2.63-3-3.91-4.53-.32-.38-1.09-.6-.67-1.36,3.22-.19,3.22-.19,5-1.69,2.38,2.35,4.81,4.68,7.16,7.09a4.93,4.93,0,0,0,3.58,1.73,5.52,5.52,0,0,0,2.21-.51,21.11,21.11,0,0,0,.94-3.16c.48-3.67-2.36-10.72-5-12.8a8.28,8.28,0,0,1-2.87-2.92c-.17-.38-.22-.55.47-.75l2.73,1.61c5.36-2.18,5.18-3.16,4.89-7.73a3.13,3.13,0,0,0-.17-.55,8.44,8.44,0,0,0-.77-1,52.51,52.51,0,0,0-7.78-6.41,12.42,12.42,0,0,1-1.48-1.11,1.88,1.88,0,0,1,.27-3.11,25.64,25.64,0,0,1,2.49-1.17,3.22,3.22,0,0,0,2-3.29c.06-2.25-.36-4.11-2.28-5.71-1.63-1.36-2.9-3.14-4.85-4.19a4,4,0,0,1-1.64-1.59c-.88-1.73-2.7-2.5-3.78-3.92a13.28,13.28,0,0,0-4.37-4c-.79-.42-1.16-1.57-1.41-3a9.11,9.11,0,0,1,3.72,2.57c1.14,1.25,2.32,2.47,3.56,3.62a13.4,13.4,0,0,0,7.34,3.7,17.82,17.82,0,0,0,2.18-3,4.59,4.59,0,0,0,.41-3.09c-.82-2.27-1.19-4.8-3.16-6.55a13.63,13.63,0,0,1-1.49-2,3.15,3.15,0,0,1,.52,0c1.57,0,2.38,1.28,3.54,1.44,1.5.21,3,.2,4.49.28a22,22,0,0,0,2.11-2.06,17.54,17.54,0,0,0,1.31-2.19c-1.18-3.89-1.18-3.89-3.77-6.29-.43-.4-1-.8-.7-1.51a34.71,34.71,0,0,0,2.7-2.4c1.1-1.17,1.18-1.89.28-3.29-2.2-3.46-3.67-7.36-6.76-10.39a2.31,2.31,0,0,1,1-.21c1.26,0,2.15,1.12,3.27,1.12l.25,0c1.42-1.74,1.57-2.59.23-3.32a5.1,5.1,0,0,1-3-5.66.75.75,0,0,0,0-.45c-.42-.61-.73-1.5-1.32-1.75-3.1-1.33-6.45-1.31-9.75-1.59a5.68,5.68,0,0,1-2.54.5c-.82,0-1.64-.09-2.45-.12-.45,0-.89,0-1.32,0a3.79,3.79,0,0,0-3.6,1.68c-.11.18-.47.23-.86.23a7.59,7.59,0,0,1-.87-.06,2.86,2.86,0,0,1-1.21-.62A6.17,6.17,0,0,0,1149,5.35a8.91,8.91,0,0,0-3.69.93l-2.43,1.14a19,19,0,0,0-7.58-2.14A11.66,11.66,0,0,0,1134,5.2c-1.58,0-3.13.3-4.68.3a10.48,10.48,0,0,1-1.25-.07l-.45,0c-1.53,0-2.41,1.06-3,2.45a9.24,9.24,0,0,0-2.34-1.4,35.78,35.78,0,0,0-8-1l-1,0a9.23,9.23,0,0,0-3.85,1.38c-1.14.58-.55,2-1.27,2.82-1.6-.27-2.62-1.46-3.82-2.39a7.23,7.23,0,0,0-3.63-1.86c-.39,0-1.13,0-2,0-3.08,0-8.26.19-9.94.44l-.9,2.1a11.26,11.26,0,0,0-7.22-2.55c-.31,0-.61,0-.92,0-.62,0-1.24.09-1.86.09a8.39,8.39,0,0,1-1.82-.18,15.3,15.3,0,0,1-3.11-1.45h0L1067.24,6c-1.75-.22-3.25-.46-4.75-.58l-1.13,0h-1.64c-.31,0-.62,0-.92,0-1.06-.06-2.1-.35-3.15-.35h0c-1.18,0-2.37.34-3.55.35-.57,0-1.14,0-1.71,0A5.29,5.29,0,0,1,1048,5a.6.6,0,0,0-.24,0,2.81,2.81,0,0,0-2,1.31,2,2,0,0,0,.6,2.09c.66.65,1.36,1.27,2,2s1.08,1.11.76,2h-.24a4.29,4.29,0,0,1-3.16-1.86,25.55,25.55,0,0,0-5-4,5,5,0,0,0-2.91-.93,6.36,6.36,0,0,0-2.34.48c-1,.39-1.78,1.24-2.77,1.6-1.57.56-1.59,2.49-3,3.41-.75-1-1.36-1.88-2-2.72-1.13-1.51-2.35-2.77-4.46-2.92a10.06,10.06,0,0,1-3-1.29c-.47.12-1.05.3-1.64.42a3.94,3.94,0,0,0-2.93,2.64,3.72,3.72,0,0,0,.14,3.52,6.53,6.53,0,0,1,.53,1.76c.14.62,1,1.19.1,2-2.3-2.84-5.95-6.4-8.56-6.1-1.35.16-3.06,2.71-4.12,3.58a14.58,14.58,0,0,1-4.77,2.76c-1.56.39-1.94,3-1.6,4.54a11.34,11.34,0,0,1,.5,2.23c0,2.22,1.39,3.69,2.78,5.1a34.17,34.17,0,0,0,5.11,4.6c2.07,1.39,3,3.94,5.38,4.91a1.36,1.36,0,0,1,.61.66c1,2.19,3,3.48,4.52,5.19a11.4,11.4,0,0,1,2,2.47c.87,1.87,2.4,3.1,3.81,4.47a24.22,24.22,0,0,1,2.27,2.26c1,1.32,1.79,2.93,3,4s1.9,3.21,3.86,3.79,1.34,3,2.69,4.05a8.23,8.23,0,0,1,1,.95,56.29,56.29,0,0,1,6.16,7.45c.18.3.1.76.21,1.73-2-2.46-4.53-3.59-5.65-6.13-.22-.51-.85-.86-1.33-1.24-.83-.65-1.74-1.22-2.53-1.93-2.4-2.12-4.07-5.05-7.14-6.42-1-2.27-3.2-3.17-5-4.5a16.41,16.41,0,0,1-2.44-2.67,11,11,0,0,0-1.83-2c-4.14-2.74-7.44-6.37-10.63-10.08a5.25,5.25,0,0,0-1.08-.12,3.12,3.12,0,0,0-1.94.65c-2.37,1.71-3.41,3.82-2.89,6.71.19,1.05.26,2.12.32,2.59l8.06,11-.57,0c-2,0-3.37-1.18-5-1.47a6.53,6.53,0,0,1-.84.31c-.75.17-1.49.3-2.24.45-2.31.45-3.22,1.46-3.29,3.66,0,1.08,0,2.16,0,3.23a2.89,2.89,0,0,0,2.08,3.18,6.84,6.84,0,0,1,4.19,3.46,9.72,9.72,0,0,0-.67,2.08,17.28,17.28,0,0,0,.17,2.81L996.55,76a4.92,4.92,0,0,0-.41,1.06,15.36,15.36,0,0,0,4.66,12c1.17,1.2,2.25,2.48,3.35,3.71-.54,1-1,1.91-1.49,2.72a4.74,4.74,0,0,1,.39,1.06c.19,3.21,1.21,6,3.93,8a2.43,2.43,0,0,1,.94,1.54c.16,2.1.52,4.25-.2,6.24a2.35,2.35,0,0,1-.55.08,1.54,1.54,0,0,1-1.44-1.07,19.56,19.56,0,0,1-.51-2.2c-.17-.57-.32-1.34-.73-1.6a24.44,24.44,0,0,0-4.08-2.07,2.21,2.21,0,0,0-.76-.13,3.06,3.06,0,0,0-2.45,1.38,10.21,10.21,0,0,0-1.4,5.72,7,7,0,0,0,1.37,4.73,44.75,44.75,0,0,1,2.59,4.07c-.1.57-.06.93-.22,1.15a3.85,3.85,0,0,0-.24,4.32,26.25,26.25,0,0,1,1.31,3.93c-1,1.14-2,2.3-2.65,3.09-1,4.5.59,7.65,3.37,10.41a10.07,10.07,0,0,1,1.49,2.28c.41.73,1.52,1.08,1.26,2.18-1.3.78-1.66,1-2.06,1a1.48,1.48,0,0,1-.39-.06,6.2,6.2,0,0,1-2.08-.82c-1.23-.88-2.36-1.9-3.48-2.81-1.86,1.28-1.84,1.29-2,2.5-.2,1.81-.06,3.66-1,5.37-1.28,2.3.41,3,.32,5.7a7.13,7.13,0,0,1-1.32,2.85c-6.62,7.25-12,6.44-16.15-1a3,3,0,0,1,0-3.08c.22-.39.63-.68.87-1.06a2.6,2.6,0,0,0-.5-3.68c-.47-.4-1-.73-1.49-1.09-1.61-1.17-3.26-2.29-4.82-3.54-.68-.55-1.68-1.18-1.38-2.2.22-.74.83-.88,1.48-.88.29,0,.6,0,.88,0,1.17.05,2.33.2,3.68.33a30.29,30.29,0,0,0-.25-9.08c-1.38-1.48-3.18-2-4.82-2.81a6.29,6.29,0,0,1-2.84-2.25,11.78,11.78,0,0,0-4.13-4.14c-.34-.21-.51-.7-.77-1.1a2.09,2.09,0,0,1,1.12-.35,1.74,1.74,0,0,1,1.09.38c2.49,1.92,5.62,1.18,8.36,2h0c.26,0,.76-.49,1-.83a2.81,2.81,0,0,0,.28-1.33q.09-7.59.15-15.18a16,16,0,0,0-.14-2.77c-.51-2.89-1.29-5.59-3.73-7.64a14.58,14.58,0,0,1-4.18-4.7,15.73,15.73,0,0,0,1.46-3.5c.27-1.83.7-3.3,2.84-3.58.25,0,.51-.33.69-.56,1.91-2.47,1.8-7.67-.31-9.92-1.24-1.32-2.67-2.46-4-3.68a4.62,4.62,0,0,1,2.14-.67c.29,0,.64,0,1.13.07l.3,0a1.24,1.24,0,0,0,1.25-.69c1-2.25,1.67-4.51.69-7a6.09,6.09,0,0,0-2.65-3.07,9.81,9.81,0,0,1-3.77-4.5c-.1-.21.32-.86.63-1a1.38,1.38,0,0,1,.55-.1,2.36,2.36,0,0,1,.8.14c1.27.43,2.5,1,3.94,1.53.88-2.58,1-4.75-1.08-6.53-1.38-1.2-2.89-2.27-4.27-3.48-.45-.39-1.23-.78-.94-1.67,1.39.09,2.39,1.24,3.86,1.24a2.9,2.9,0,0,0,.8-.11c.37-3.41.76-6.85-.65-10.08.3-.42.46-.69.66-.91s.49-.38.7-.59c1.49-1.48,1.63-2.21.75-4.05a11.61,11.61,0,0,0-4.24-5.31,2.14,2.14,0,0,1-1-2.76c.68-1.45-.4-2.63-.41-3.91l1.77-2.23c-.09-1.71.92-4-.26-4.81-5.15-3.5-.38-8.36-6.74-8.26-.3,0-2.37.15-3.08.15a9.42,9.42,0,0,1-3.52-.6,8.16,8.16,0,0,0-2.68-.5h-.79c-1.22,0-2.45.07-3.67.07h-1.41c-1.56,0-3.12.09-4.67.09a17.6,17.6,0,0,1-6-.84,2.32,2.32,0,0,0-.8-.14,1.69,1.69,0,0,0-.56.09,17,17,0,0,1-6.12.76H927c-.79,0-1.59,0-2.38,0a3.62,3.62,0,0,0-1.76.4,12.82,12.82,0,0,0-1.83,1.85,4.27,4.27,0,0,1-1.3-.54c-1.61-1.43-3.52-1.52-5.56-1.7-.59-.05-1.19-.07-1.78-.07-1.36,0-2.72.09-4.08.09a13.51,13.51,0,0,1-4.65-.67,1.13,1.13,0,0,0-.38,0,2.11,2.11,0,0,0-.91.22,5.12,5.12,0,0,1-2.37.54,14.61,14.61,0,0,1-3-.45,4.26,4.26,0,0,0-.83-.1c-1.08,0-1.79.6-2.61,2l2.74,3.57-.61.36A32,32,0,0,1,892.34,8a7.36,7.36,0,0,0-5.92-2.52h-.24c-.95,0-1.91,0-2.87,0a27,27,0,0,1-3.12-.15c-.31,0-.6-.05-.89-.05a5.54,5.54,0,0,0-4.95,2.85c-.32.51-.71,1-1.07,1.43C872.1,8.78,871,8,869.81,7.23a4.57,4.57,0,0,0-2.45-.84,3.44,3.44,0,0,0-1.45.34c-1.09,1.31-2.22,2.56-2.48,4.35,0,.31-.6.55-1,.89a25,25,0,0,0-2.76-2.49,26.38,26.38,0,0,0-3.29-1.61c-.27-.14-.47-.39-.74-.55C853.42,6,851.2,4.71,848.7,4.71a7.75,7.75,0,0,0-2.91.59,2.26,2.26,0,0,1-.91.15c-.44,0-.91-.06-1.35-.06h-3.26c-1.24.05-1.78.88-1.64,2.22a6.7,6.7,0,0,0,1.64,3.73,4.89,4.89,0,0,1,1,1.49A25.16,25.16,0,0,1,842,16c.2,1,1.35,1.71.88,3.11a9.91,9.91,0,0,1-3.69-2.45c-4.53-4.47-10.36-7-15.63-10.29a4.47,4.47,0,0,0-1.7-.68,15.55,15.55,0,0,0-2.16-.11h-.57a8.57,8.57,0,0,1-4.48-.86.2.2,0,0,0-.11,0,.94.94,0,0,0-.33.08A11.71,11.71,0,0,1,810,5.5a13.3,13.3,0,0,1-4.31-.75,1.16,1.16,0,0,0-.42-.06,11.39,11.39,0,0,0-1.37.21,11.2,11.2,0,0,1-1.44.3,1.54,1.54,0,0,1-.3,0,2.69,2.69,0,0,0-.79-.14c-.79,0-1.27.5-1.72,1.34a1.74,1.74,0,0,1-1.4,1.07,1,1,0,0,1-.76-.36A5.64,5.64,0,0,0,793,5.4l-1,0a2.53,2.53,0,0,0-2.51,2.72,16.05,16.05,0,0,0,1.85,7,3.34,3.34,0,0,1-.46.78c-2,1.95-2.29,4.62-3,7.09-.54,2,.46,3.91,1.28,5.73a3.41,3.41,0,0,1,.31.86,4,4,0,0,0,1.9,3A6,6,0,0,1,794,35.8a9.71,9.71,0,0,0,2.22,3.44c.29.33.69.7.73,1.09s-.35,1-.57,1h-.09a20,20,0,0,1-2.16-.3,34.35,34.35,0,0,0-3.62-.35h0a2.21,2.21,0,0,0-1.83,1.81A25.63,25.63,0,0,1,788,47a3.8,3.8,0,0,0,.48,2.16,51.35,51.35,0,0,0,7.46,12A8.19,8.19,0,0,1,798,65.71a3.61,3.61,0,0,0,1.65,2.65c.62.45,1.37.73,1.93,1.23s1.17,1,.75,1.93l-4.07,1.78c-1,3.1-.69,5.76,1.81,7.7,3,2.31,4.58,5.64,6.68,8.6a8.93,8.93,0,0,0,2.8,2.94,8.55,8.55,0,0,1,4.05,5.78,1.83,1.83,0,0,1-.32,0,1.58,1.58,0,0,1-1.29-.83,15.59,15.59,0,0,0-2-2.45,76.58,76.58,0,0,1-6.32-6c-2-2-3.69-4.59-6.82-5.26a1.77,1.77,0,0,1-1-.91c-.64-1.25-1.8-1.49-3-1.87-1.38-.44-2.94-.73-3.56-2.38-1.22,1.2-.29,2.08.13,3a25.56,25.56,0,0,0-1.16,2.49,7,7,0,0,0,1,7,23.16,23.16,0,0,0,3.43,3.57c3.15,2.48,5.43,5.78,8.35,8.46,1.79,1.64,3,3.91,5.4,4.88.48.2.76.9,1.15,1.36.8.93,1.55,1.91,2.42,2.78,2.59,2.62,5.11,5.31,7.86,7.75s5.86,4.91,8,8.12a2,2,0,0,0,.33.32c2.65,2.57,5.31,5.11,7.93,7.71a13.51,13.51,0,0,1,1.64,2.18c.1.16-.11.52-.24,1-1.08-.9-2-2-3.14-2.51-1.57-.64-2.29-2-3.39-3a22.39,22.39,0,0,0-2.19-1.65,7,7,0,0,1-1.48-1c-1.7-2.15-3.92-3.85-5.17-6.39a4.64,4.64,0,0,0-1.88-1.87,5.67,5.67,0,0,1-2.3-2.17,4.84,4.84,0,0,0-1-1.51c-1.22-.92-2.74-1.52-3.76-2.59s-1.32-2.77-2.54-3.79l-.33-.32c-2.95-2.85-6.45-5.1-9-8.34a1.08,1.08,0,0,0-.8-.47.89.89,0,0,0-.4.09,1.8,1.8,0,0,1-.7.15,2.53,2.53,0,0,1-1.74-.91c-.44-.45-.42-1.35-.61-2-.84.12-.84,1.29-1.81,1.29l-.3,0a8.88,8.88,0,0,0-1.61-.24c-.87,0-1.07.48-1.7,1.88a6,6,0,0,1-.82,1.61,4.08,4.08,0,0,0-1,3.43c.06.61.07,1.23.07,1.84a4.64,4.64,0,0,0,2.11,3.84c3.88,3,5.23,4.6,9.13,10.14a2.37,2.37,0,0,0,.62.64,12.68,12.68,0,0,1,4.88,4.81c1.11,2,2.8,3.56,3.93,5.55A26.61,26.61,0,0,0,812,140c1.11,1.27,2.43,2.36,3.49,3.66,1.19,1.46,2.39,2.78,4.35,3.14a3.8,3.8,0,0,1,2.84,2.15,6.33,6.33,0,0,0,2.49,2.61,6.13,6.13,0,0,1,2,1.92,12.66,12.66,0,0,0,2.9,2.81c2.61,2.37,5,5,7.35,7.63.19.21,0,.73,0,1.38-1.65-1.31-3-2.48-4.5-3.58-2.15-1.62-3.16-4.6-6.17-5.21-.85-2.13-3-3-4.46-4.49s-2.92-3.26-4.7-4.4c-2-1.28-3.36-3.07-5-4.66-1.09-1.06-1.95-2.46-3.2-3.26-2.63-1.7-4.39-4.26-6.7-6.28-1.61-1.41-2.79-3.45-4.58-4.51-2-1.22-3.18-3.29-5.18-4.44-.26-.15-.46-.48-.73-.53a6.38,6.38,0,0,0-1.28-.23.86.86,0,0,0-.47.11,16,16,0,0,0-2.36,2.09c-.38,3.17-1.26,6.36.72,9.37a14.19,14.19,0,0,1,1.68,3.26,11.85,11.85,0,0,0,4.55,6.2,5.67,5.67,0,0,1,2.09,2.36,6.65,6.65,0,0,0,3.29,3.7,72.79,72.79,0,0,0,7.64,7.87c1.68,1.56,3.27,3.2,4.91,4.8a8,8,0,0,1,1.34,1.25c2,3.16,5.38,5,7.5,8,2.33,1.54,3.93,3.81,5.82,5.8a86.74,86.74,0,0,0,6.78,6.91c2.34,2,4.13,4.49,6.76,6.12A4.72,4.72,0,0,1,842.2,193c.07.12.11.37,0,.44s-.46.47-.71.48h-.23a1.94,1.94,0,0,1-1.09-.25c-1.88-1.32-3.79-2.62-5.53-4.11a33.56,33.56,0,0,0-3.7-2.69c-1.26-.8-2.17-2.15-3.39-3a105.25,105.25,0,0,1-14-11.82c-1.6-1.63-3.54-2.92-5.25-4.45a18.18,18.18,0,0,1-2.84-3,25.84,25.84,0,0,0-5.65-6,14.48,14.48,0,0,1-4.14-4.22,1.79,1.79,0,0,0-1.55-1.07,3.19,3.19,0,0,0-1.59.55,13.17,13.17,0,0,1-2,1.21c-1.84.71-2.47,2.27-2.68,4a14,14,0,0,0,.3,3.63,12,12,0,0,0,.65,2.66A2.91,2.91,0,0,1,788,169a3.36,3.36,0,0,0-1.1,2.88,7.34,7.34,0,0,0,.69,3.11c.69,1.5,1.15,3.1,1.7,4.64a8.29,8.29,0,0,0-1.47,8.28c.66,2.19,1,4.47,1.51,6.71.66,3.15.71,6.15-2.4,8.19,0,2-.05,3.82,0,5.66a4.2,4.2,0,0,0,.48,2.2c2.27,3.14,2,7,3.16,10.46.38,1.15.06,1.85-1,2.2a4.66,4.66,0,0,0-3,2.61,5.25,5.25,0,0,0,0,4.42,14.38,14.38,0,0,1,1.14,4.91,3,3,0,0,0,.85,2.05c2.1,1.89,2.2,4.23,1.94,6.69-1.13,1.15-2.93,1.38-3.53,3.31.65,1.78.78,4,2.31,5.65a5.24,5.24,0,0,1,1.34,3.79c.07,3.06-.85,6.42.68,9.14a10.24,10.24,0,0,0,3.33,3.11,3.41,3.41,0,0,0,.85.1c.45,0,.92-.06,1.37-.06H797a3.25,3.25,0,0,0,3-1.8,27.69,27.69,0,0,0,1.27-3.07c1,1.09,1.79,2,2.66,2.82s2,1.44,2.84,2.33a4.46,4.46,0,0,0,3.44,1.44c.25,0,.49,0,.74,0a7.77,7.77,0,0,0,2.68-.44c2-1,3.17-4.17,2.53-6.32-.2-.67-1-1.28-.17-2.16a7.68,7.68,0,0,1,1.22.13,16.61,16.61,0,0,0,3.73.65c2.19,0,3.51-1.24,4.71-5.32a3.08,3.08,0,0,1,.28-.58c1.12-.91,2.06-1.68,3-2.42.31-.24.7-.63,1-.63h.06a5.91,5.91,0,0,0,1.35.16c2,0,3.66-1.1,5.19-2.51a3.33,3.33,0,0,0,.89-4.17,8,8,0,0,1-.32-1.38c2.42.61,4.45,1,6.21,2.4a2.37,2.37,0,0,0,1.46.61,2.49,2.49,0,0,0,1.79-1c1-1.11,1.93-2.35,3.07-3.75h2l1.51,0a3.82,3.82,0,0,0,1.78-.26c3-1.84,6.17-3.64,5.91-7.95,0-.23.3-.49.56-.88.65,0,1.4-.06,2.15-.14a4.12,4.12,0,0,0,3.87-4.29,6.46,6.46,0,0,0-2.29-5.31c-1.71-1.37-2.63-3.36-4.13-4.89-.14-.14,0-.54,0-1,3.3,1.62,5.94,4.25,9.57,5.35,1.7-.86,3.75-1.22,4.73-3.2-.3-.94-.61-1.8-.86-2.69s-1.36-1.22-.93-2.22a1.75,1.75,0,0,1,.42-.07c.56,0,.89.42,1.24.76,1,.95,1.91,2,3,2.88a6.18,6.18,0,0,0,3.69,1.73,3.31,3.31,0,0,0,.93-.13,26.46,26.46,0,0,1,6.37-.74,4.07,4.07,0,0,0,1.75-.43c1.74-.95,3.44-2,5.15-3,.59-.35.44-.83-.49-1.72-2,.27-3.26,2.2-5.35,2.2h0c-.13-2.2-.07-2.26-1.25-3.61a9.42,9.42,0,0,1-2.41-5c2.69-1.09,1.68-3.75,4.08-5.9.64-.58,2.52.6,3.33.9A15.87,15.87,0,0,1,900,209a8.52,8.52,0,0,1,6,4.75l.1,0a6.62,6.62,0,0,1,4.91,8m117.52-110.06a24.37,24.37,0,0,0-7.37-5.83c-.72-.34-1.09-1.69-1.14-3.22,3.43,1.89,5.91,4.77,8.49,7.53.2.22,0,.78,0,1.52Zm129.75,37.67h-.09a3.81,3.81,0,0,1-1.13-.7,29.76,29.76,0,0,0-2.8-2.39,16.4,16.4,0,0,1-6.39-6.46c-2.76-1.88-4.15-5.26-7.38-6.66a7.75,7.75,0,0,1-2.57-1.9c-2.31-2.65-5.46-4.44-7.54-7.31a11.5,11.5,0,0,1-.79-1.52l.59-.51a19.39,19.39,0,0,1,2.09,1.73c2.37,2.61,3.43,3.61,6,4.59a7.33,7.33,0,0,1,2.59,1.81,62.66,62.66,0,0,0,6.89,6.11,12.88,12.88,0,0,1,3.74,4,18.46,18.46,0,0,0,4.45,5.09,9,9,0,0,1,3,3.41c0,.12,0,.37,0,.41a1.79,1.79,0,0,1-.69.3ZM862.39,165.65a3.32,3.32,0,0,1-2.19-1.28c-1.07-1.06-2-2.28-2.94-3.44s-2.46-1.18-3-2.67a4.25,4.25,0,0,0-1.55-1.61c-.6-.44-1.67-.55-1.94-1.09-1.14-2.39-5.76-6-6-6.28-1.89-1.94-3.71-3.95-5.53-5.95a5,5,0,0,1-.49-.77.89.89,0,0,1,.75-.46,1.7,1.7,0,0,1,.77.25c.53.3,1.23.56,1.48,1,.93,1.82,2.77,2.82,3.81,4.5a16.34,16.34,0,0,0,1.29,1.75c1.8,1.56,3.95,2.62,5.44,4.65a62.5,62.5,0,0,0,5.7,5.94c1.48,1.53,3,3.05,4.43,4.6.13.14,0,.54,0,.83Zm255.52,48.12c-.43,0-.69-.5-.93-.71-2.31-2-4.27-4.39-6.9-6-2.12-1.31-3.15-3.67-5.12-5.2s-3.31-3.6-5-5.42a18.74,18.74,0,0,0-1.64-1.57c-.68-.61-1.66-1-2-1.8a7.5,7.5,0,0,0-4.22-4,1.74,1.74,0,0,1-.91-1,8.45,8.45,0,0,0-2.55-3.21,2.8,2.8,0,0,1-.8-1.11c-.89-2.56-3-4.08-4.83-5.85a44.57,44.57,0,0,0-4.26-4.1,1.86,1.86,0,0,1-.64-.67c-1.72-3.92-5.56-6-8.07-9.28-1.47-1.92-3.28-3.56-4.52-5.7a20.81,20.81,0,0,0-2.42-2.75c-.68-.8-1.29-1.65-1.93-2.47l.62-.69a7.35,7.35,0,0,1,1.91,1,52.89,52.89,0,0,0,7.55,6.71,4.22,4.22,0,0,1,1.24,1.35,14.88,14.88,0,0,0,5.08,5.23,2.37,2.37,0,0,1,.68.62c2.75,4.26,7.27,7,9.88,11.38a19.21,19.21,0,0,1,5.21,6.23,2.51,2.51,0,0,0,.65.65c2.61,2.37,5.28,4.67,7.16,7.73a3.32,3.32,0,0,0,1.06.84,9.1,9.1,0,0,1,3.58,4.1,9.44,9.44,0,0,0,2.33,2.73,56.64,56.64,0,0,1,6.12,6.83c1.18,1.6,2.42,3.15,3.67,4.7a5.78,5.78,0,0,1,.57,1.17.89.89,0,0,1-.58.26ZM952.87,168a4.94,4.94,0,0,1-5-3.47,15.52,15.52,0,0,0-2.27-3.9,30.25,30.25,0,0,1-1.86-3.44c.49,0,.87-.07,1.16-.07a.75.75,0,0,1,.39.09,89.62,89.62,0,0,1,7.36,6.11,20.65,20.65,0,0,0,4.21,2.73,33.89,33.89,0,0,1,8.79,5.76,13.08,13.08,0,0,0,2.68,1.73,22.84,22.84,0,0,0,3.26,1.68c1.27.47,2,2,3.45,2h.28a20.05,20.05,0,0,1,3.38.69,3.71,3.71,0,0,0,.67.06,29.25,29.25,0,0,0,3.49-.54c.63.7,1.3,1.51,2,2.24a25.25,25.25,0,0,1,2.07,1.76,3.84,3.84,0,0,0,2.23,1.42,3.42,3.42,0,0,1,1.74,1.33,15.79,15.79,0,0,0,5.53,5.18,5.05,5.05,0,0,1,2.07,1.71c1.1,2.32,3.62,3.17,5,5.22a7.24,7.24,0,0,0,3,2,3.39,3.39,0,0,1,1.67,1.44,4.91,4.91,0,0,0,3.06,2.58c1.36.38,2.25,1.46,3.23,3.66a17.21,17.21,0,0,0-2.93-1.91,20.11,20.11,0,0,1-5.08-2.78c-1.6-1.15-3.34-2.13-4.88-3.41-1.84-1.53-3.37-3.46-5.67-4.47a6.59,6.59,0,0,1-2-1.89c-1.68-2-3.34-3.88-6.13-4.46-1.11-.23-2.07-1.26-3.06-2-1.86-1.34-3.7-2.71-5.61-4.12l-1.74,0-1,0-.49,0a6.93,6.93,0,0,1-5.26-2.33,36.57,36.57,0,0,0-7.35-6.12,34.94,34.94,0,0,1-3.54-2.92,20.4,20.4,0,0,0-2.16-1.67,3.25,3.25,0,0,0-1.64-.66,1.7,1.7,0,0,0-.91.29,2.42,2.42,0,0,1-.86.32,9.51,9.51,0,0,1-1.28.09Zm72.41,21.2a1.41,1.41,0,0,1-.76-.33c-2.67-2-5.33-4.09-8-6.13-1.82-1.39-3.7-2.72-5.47-4.16a21.84,21.84,0,0,0-7.71-3.92,15,15,0,0,1-5.65-2.81,42.39,42.39,0,0,0-3.83-2.47,8.36,8.36,0,0,1-1.37-1.22,2.58,2.58,0,0,1-.32-.86l1.35-.17A12.3,12.3,0,0,1,995,167a10.38,10.38,0,0,1,7.28,3c3.13,2.88,6.83,5.12,10.17,7.78,4.4,3.51,9.22,6.5,13.23,10.5a3.73,3.73,0,0,1,.28.38.76.76,0,0,1-.66.46ZM1087.62,273a1.61,1.61,0,0,1-.44-.05,1.47,1.47,0,0,1-.68-.59c-1-1.32-2.66-2-3.64-3.45-.61-.9-2.16-1.13-2.93-2a10.87,10.87,0,0,0-2.81-2.31,11.9,11.9,0,0,1-2.49-1.95c-3.8-3.72-7.93-7.1-11.61-11a20.11,20.11,0,0,0-2.2-1.66,18.9,18.9,0,0,1-2.1-1.79c-2.29-2.44-5.07-4.4-7.31-6.84-2.7-2.93-5.9-5.27-8.63-8.14-1.38-1.44-2.85-2.8-4.21-4.25-.73-.79-1.32-1.69-2.47-1.95-.28-.07-.68-.27-.74-.49-.55-2.09-2.65-2.83-3.84-4.37a39.67,39.67,0,0,0-3.26-3.22c-.73-.75-1.39-1.55-2.55-2.85a4.24,4.24,0,0,1,3.82,1.83c1.59,2.07,4,3.24,5.46,5.45,1,1.53,3.08,1.4,4.16,2.66a16.2,16.2,0,0,0,3.65,3.4c1.78,1.1,3.69,2.25,4.68,4.3,2.74,1.51,4.37,4.25,6.81,6.1,1,.72,2.1,1.3,2.57,2.56a1.8,1.8,0,0,0,.94,1c3.47,1.32,5.16,4.7,7.94,6.84,3.13,2.41,5.8,5.41,8.75,8.06a16.51,16.51,0,0,1,3.48,3.55,8.9,8.9,0,0,0,2.93,2.89c3.11,1.87,4.81,5.08,7.38,7.43.16.14.1.51.14.78-.27,0-.54,0-.8,0Zm-34.39,5.7a3.22,3.22,0,0,1-2.45-1.54,21.82,21.82,0,0,0-4.07-3.72c-1.36-.93-2.32-2.33-3.67-3.37-2.3-1.77-4.27-4-6.39-6-1.44-1.36-2.54-3.11-4.45-3.95-2-3-4.81-5.1-7.39-7.47-.42-.39-.55-1.08-.86-1.6a7.46,7.46,0,0,0-1.82-2,48.27,48.27,0,0,1-5-4.72c-.32-.34-.25-1.18-.12-1.73a1.27,1.27,0,0,1,.94-.62h.07a3.61,3.61,0,0,1,2.57,1.75,5.73,5.73,0,0,0,2.89,2.85,4.12,4.12,0,0,1,1.33,1.21,133.88,133.88,0,0,0,14.64,14.55,4.47,4.47,0,0,1,1.33,1.26c1.22,2.4,3.51,3.85,5,5.91,1,1.28,2.24,2,3.24,3.18.6.69,1.37,1.24,2,1.87a3.25,3.25,0,0,1,.55.73c.63,1.09,1.24,2.19,1.89,3.33l-.34,0Zm55.25,140.89c-1.45-1-2.34-1.49-3.16-2.11a31.6,31.6,0,0,0-2.43-2.09,14.32,14.32,0,0,1-4.15-4.2,37.69,37.69,0,0,0-4.06-4.34c-1.61-1.64-3.21-3.29-4.88-4.85-.66-.61-1.56-.94-2.27-1.51a11.63,11.63,0,0,1-1.93-1.91c-.21-.26-.07-.81-.1-1.41,2.27,1.29,4.67,1.94,6.29,3.88,2.47.34,3.21,3.19,5.49,3.83a1.57,1.57,0,0,1,.69.6q5.1,6.15,10.17,12.34c.16.2.12.58.34,1.77Z"/><path d="M700.1,113.14a4.39,4.39,0,0,1-2.53-1.79c-2.77-3.11-6.23-5.42-9.43-8A55.52,55.52,0,0,1,681,96.2c-.19-.23-.22-.63-.45-.79a25.52,25.52,0,0,1-3.71-2.63c-.93-1-1.42-2.43-2.73-3-2.37-1.06-3.73-3.11-5.27-5a5.68,5.68,0,0,0-1.59-1.61,5.88,5.88,0,0,1-3.31-3.47c-.41-1.16-1.8-2.05-2.89-2.86a13.21,13.21,0,0,1-3.3-3.16,11,11,0,0,0-2-1.82,11,11,0,0,1-2-1.84c-.78-1.16-1.4-2.39-2.87-2.84a1.19,1.19,0,0,1-.66-.59c-1.25-3-3.93-4.72-6.07-6.84-2.35-2.32-4.88-4.53-7.41-6.7s-4.75-4.25-5.43-7.58a4.69,4.69,0,0,1,.7-.17.25.25,0,0,1,.13,0,20.27,20.27,0,0,1,2.76,2.37q1.85,2,3.73,4a14.49,14.49,0,0,0,3.7,3.29,1.92,1.92,0,0,1,.67.63c2.76,3.7,6.53,6.41,9.61,9.8,1.31,1.46,2.52,3.13,4.54,3.82a1.8,1.8,0,0,1,1,.93c.62,1.37,1.87,2,3,2.69.38.23.94.46,1,.81.77,2.38,3.13,3.27,4.61,5S670,81.46,671.54,83s3.12,3.37,4.77,5c3.18,3.1,6.46,6.1,9.63,9.2a54.43,54.43,0,0,1,4.3,4.69,77.93,77.93,0,0,0,8,8.16,4.83,4.83,0,0,1,1.87,3.16Zm-98.69,8.5h0c-1.73-1.23-3.49-2.43-5.13-3.77-1.42-1.15-2.7-2.48-4.54-4.19.75,0,1.19-.05,1.45-.05a.39.39,0,0,1,.28.07c2.55,2.85,6.26,4.39,8.63,7.5a3.93,3.93,0,0,1-.67.44Zm-14.88,39.67a6.79,6.79,0,0,1-1.34-.76c-3-3-6.26-5.85-8.65-9.46-.24-.37-.54-.85-.92-1-2.25-.73-3-2.88-4.51-4.39-4.13-4.31-8.38-8.5-12.59-12.75-.42-.42-.84-.86-1.49-1.54.5-.06.89-.2,1.15-.2a.37.37,0,0,1,.21.06c1.51,1,3.33,1.87,4.33,3.29a38.23,38.23,0,0,0,3.65,4c2.51,2.64,4.72,5.62,8,7.45a4.53,4.53,0,0,1,1.85,2,13.94,13.94,0,0,0,4.11,4.89c2.32,2.05,4,4.63,5.94,7,.23.26.15.78.25,1.41Zm160.06,32.5a1.61,1.61,0,0,1-.81-.34c-3.28-2.2-6.09-5-9.61-6.94-1.44-.79-2.53-2.21-3.77-3.36-1-.93-1.86-2-3.34-2.32a5,5,0,0,1-1.87-1.26C723,176,718.34,173,714.51,169c-2.42-1.31-4.16-3.58-6.72-4.73a10.06,10.06,0,0,1-2.14-1.7c-1.38-1.21-2.74-2.45-4.13-3.66-.34-.3-.9-.41-1.13-.75-1.72-2.65-4.47-4.1-6.84-6-.95-.76-1.79-1.67-2.69-2.5a22.39,22.39,0,0,0-3.42-3.07,13.31,13.31,0,0,1-5.1-6.23c1.52.63,3.07,1.19,4.54,1.94a6.37,6.37,0,0,1,1.63,1.57,31.32,31.32,0,0,0,7.86,6.31h.08c1.54,0,2.4,1,3.29,2.11a3.56,3.56,0,0,0,1.11.79q2.83,1.47,5.7,2.9a12.15,12.15,0,0,1,4.72,3.51,6,6,0,0,0,2.76,2.32c2.94,1.07,5,3.45,7.65,5a6.41,6.41,0,0,1,2.73,3,7.48,7.48,0,0,0,1,1.54c.89,1.27,3.14.66,3.56,2.57.36,1.67,1.74,2.4,2.9,3.4.91.77,1.42,2,2.32,2.8a76.5,76.5,0,0,1,8.58,8.11,10.28,10.28,0,0,1,4.5,5.08.76.76,0,0,1-.64.46Zm-193.4,68.4a33.92,33.92,0,0,1-7.36-6.21,2.46,2.46,0,0,1-.46-1.25c0-.21.23-.49.41-.68a.26.26,0,0,1,.17,0,.54.54,0,0,1,.27.07,4.84,4.84,0,0,1,1.35,1.17,10.39,10.39,0,0,0,4.47,4.43c.75.4.79.68,1.15,2.52Zm146.24,23.88a1.51,1.51,0,0,1-.72-.31c-3-1.85-8.88-7.1-9.31-7.41-2.38-1.75-4.72-3.56-7.06-5.36a1.5,1.5,0,0,1-.48-.71c-.09-.27-1-.85-1.34-1.08-2.2-1.62-3.94-3.84-6.58-4.93-.59-.24-.88-1.21-1.3-1.83a1.93,1.93,0,0,1,1.25-.49,1.85,1.85,0,0,1,1.33.59c2.21,2.28,7.86,7,8.3,7.36q3.65,2.73,7.19,5.62c.28.23,1.08,1.18,1.27,1.34,2.75,2.16,5.47,4.36,8.17,6.53-.24.52-.48.68-.72.68ZM591.28,393.17a1.4,1.4,0,0,1-.51-.09,2.78,2.78,0,0,1-1.12-.72,19.74,19.74,0,0,0-3.54-4.2c-.83-.64-.88-1.34-.85-3,.11-.27.23-.79.33-.79h0a3.29,3.29,0,0,1,1.12.34c.1,0,.08.33.19.4,2.48,1.71,3.71,4.33,5,6.89.21.42.33.87-.24,1.08a1.23,1.23,0,0,1-.39.06Zm175-189.74a8.12,8.12,0,0,0,5.5,1.53h.11a3.89,3.89,0,0,0,4.14-3.13c-.62-1.14-1-2.64-2-3.48a53.08,53.08,0,0,0-7.35-5.38c-1.41-.84-2.57-1.47-2.74-3.29a3.7,3.7,0,0,0-1.14-1.89c-1.8-1.87-1.83-1.84-3-5,1.15.11,2.35-.1,3.2.36a12.12,12.12,0,0,0,5.93,1.47c.38,0,.78,0,1.18,0h.18a12.72,12.72,0,0,1,2.07.38,2.07,2.07,0,0,0,.35,0c.72,0,1.32-.39,1.34-1a43.1,43.1,0,0,0-.15-8.72,92.38,92.38,0,0,0-8.75-6.79,7.09,7.09,0,0,1-2.7-3.05,25.9,25.9,0,0,1-1.06-5.24,16.9,16.9,0,0,1,2.94-.44c1.36,0,1.79.67,2.69,2.57.32.68.45,1.48.81,2.14a5.57,5.57,0,0,0,4.12,2.62l.2,0a1.28,1.28,0,0,0,.68-.18c1.28-.88,2.41-1.83,2.51-3.61a8.52,8.52,0,0,0-1.3-5.72c-1.6-2.2-2-5.18-4.36-6.89-.34-.24-.46-.78-.69-1.18-1.32-2.24-2.6-4.5-4-6.7a5.33,5.33,0,0,1-.75-4.06c2,1.48,3.93,2.91,5.86,4.31.8.59,1.39,1.8,2.44,1.8a1.6,1.6,0,0,0,.58-.11c1.75-.67.74-2.4,1-3.64.07-.3,0-.62,0-.92a8.24,8.24,0,0,0-2.1-6.35c-2.21-2.73-4.7-5.24-6.54-8.28a12.94,12.94,0,0,0-3-3.42,5.58,5.58,0,0,1-1.89-2.52,12.22,12.22,0,0,0-3-4.56,1.84,1.84,0,0,1-.6-2.28,20.41,20.41,0,0,1,3.94,1.9,5.67,5.67,0,0,0,2.85.78,6.07,6.07,0,0,0,2.47-.54,6.39,6.39,0,0,0,3.34-4.22,3,3,0,0,0-.29-2.19c-1.07-1.64-1.88-3.5-3.83-4.49a12.34,12.34,0,0,1-2.79-2.39,1.84,1.84,0,0,1-.14-2.51c2.14,2.4,2.14,2.4,5,2.42H768a5,5,0,0,0,.93.09c2.15,0,3.56-1.49,4.93-3a2.35,2.35,0,0,0,.48-1.27c.31-2.54-.65-4.81-2.82-5.83-2.58-1.2-4.31-3.4-6.7-4.75a1.11,1.11,0,0,1-.4-1.6c1.75-.73,3.91-.83,4.93-2.87-2.17-5.63-1.66-5-6.81-8.84-1.11-.82-2.31-1.51-3.42-2.32-.33-.24-.67-.66.09-1.12,2.36,1.18,5,2,6.89,4.18a17.81,17.81,0,0,0,4,3,3.85,3.85,0,0,0,2,.89,2.46,2.46,0,0,0,.72-.12c1-3.67.58-7.45.2-10.93-1.1-1.87-3.12-2.55-3.67-4.59,1.87-2.23,1.67-4.4-.4-6.46-.37-.37-1-.66-.83-1.3.95-.68,1.85-1.26,2.68-1.93a3.87,3.87,0,0,0,1.21-4.2,4.69,4.69,0,0,0-2-3c-2.16-1.24-3.68-3.21-5.55-4.78-1.19-1-1.86-2.45-2.85-3.56s-2.93-1.72-4.07-2.9a87.85,87.85,0,0,0-7.94-6.87c-3.19-2.6-5.8-5.79-9-8.93.6,0,1-.13,1.35-.13a.53.53,0,0,1,.32.08c2.16,1.66,4.34,3.27,6.56,4.84,1.48,1.05,2.67,2.47,4.51,3.07a8,8,0,0,1,2.26,1.5c1,.76,1.85,1.59,2.76,2.4,1.36,1.23,2.73,2.45,4.08,3.7,1.8,1.67,3.52,3.43,5.38,5a13.25,13.25,0,0,0,2.61,1.43c2.44-.89,2.87-3,3.63-4.78.9-2.14-.75-3.78-1.42-5.68a5.7,5.7,0,0,0,3.19-4.63c-.49-1.45-1-2.9-1.46-4.34a1.43,1.43,0,0,1,.1-.43c.16-.26.37-.48.54-.74,1.21-1.81,1.39-4.08.18-5.52A50.19,50.19,0,0,1,769.59,6a2.38,2.38,0,0,0-2.14-1.33h-.12c-.38,0-.75,0-1.13,0-.8,0-1.59,0-2.39,0a13.56,13.56,0,0,0-4.25.54,8.72,8.72,0,0,1-2.59.38,8,8,0,0,1-2.42-.35,13.89,13.89,0,0,0-4.45-.57l-2.43,0c-.6,0-1.2,0-1.8-.06a4.35,4.35,0,0,0-.51,0,9.52,9.52,0,0,0-3.51.81,9.16,9.16,0,0,1-2.73.31,12.67,12.67,0,0,1-1.92-.13,12.67,12.67,0,0,0-2.3-.18h-5.57c-2.61,0-5.21,0-7.82,0a9.17,9.17,0,0,0-1.62.3,3.2,3.2,0,0,0,.76,4c.86.79,2,1.41,2.21,2.88-.48-.05-1,0-1.3-.16-1.84-1.11-3.64-2.29-5.44-3.45A33.55,33.55,0,0,0,711.46,6a22.75,22.75,0,0,0-5.28-1.27c-1.51-.24-3.17.09-4.57-.41a17.74,17.74,0,0,0-6-.73h-.73c-.62,0-1.25,0-1.87,0h-.07a6.76,6.76,0,0,0-1.55.37c-.2.79-.35,1.37-.53,2.09l-4.17-2.22c-2.58.66-3.39,2.9-4.62,4.11a5,5,0,0,1-1.59.29c-1.9,0-3-1.41-4-2.66-4,0-8,0-12,0-3.14,0-6.27,0-9.4.08a41,41,0,0,0-6.72,1.11.85.85,0,0,0-.35.74,7.89,7.89,0,0,0,1.22,1.88c2.35,2.44,4.75,4.82,7.11,7.24.12.12,0,.45,0,1a32.62,32.62,0,0,0-3.06-2.22c-1-.59-2.22-.94-3.32-1.43a6.24,6.24,0,0,1-1.19-.71c-1.57-1.21-3.12-2.46-4.71-3.66a9.3,9.3,0,0,0-2-1.18c-1.69-.69-3.42-1.27-4.56-1.69l-8,1c-.54,1.26-1.12,2.64-1.7,4-1.71-.07-1.77,0-2.82-1a5.87,5.87,0,0,0-4.06-1.72l-.56,0a7.81,7.81,0,0,1-.83,0,9.8,9.8,0,0,1-5.61-1.93c-.88-.61-1.92-1-2.77-1.65-2-1.55-4.47-1.86-6.76-2.64a2.18,2.18,0,0,0-.74-.13,2.68,2.68,0,0,0-1.8.8,11.06,11.06,0,0,0-3.47,6.63c-1.61-1.12-2.92-2.11-4.31-3-1.56-.94-3.21-1.75-4.75-2.58l-5.19,1.22c-.79,1.24-1.76,2.61-2.57,4.08a2.61,2.61,0,0,0,.58,3.35,20.49,20.49,0,0,1,2.84,3,21.89,21.89,0,0,0,4.62,5.11c1.62,1.36,2.81,3.1,4.61,4.33,2.59,1.75,3.81,5.07,6.87,6.39,1.53,2.5,4,4.15,5.7,6.48a.78.78,0,0,1-.13.77.92.92,0,0,1-.57.18.51.51,0,0,1-.25-.05A7.38,7.38,0,0,1,603.5,38c-3.12-3.86-7.48-6.26-11.08-9.57-2.13-2-4.54-3.63-6.5-5.81a33.25,33.25,0,0,0-3.23-3.27c-2.35-2-4.79-3.81-7.19-5.69a28.69,28.69,0,0,1-2.54-2,13,13,0,0,0-4.35-3.31,6.56,6.56,0,0,1-2.17-1.67,4.58,4.58,0,0,0-3.52-1.37h-.24c-.59,0-1.18,0-1.78,0h-1.64a34.17,34.17,0,0,0-4.42.22c-2.72.35-5.43.78-8.17,1a1.47,1.47,0,0,0-1,.85,1.44,1.44,0,0,0,.23,1.22c.81.91,2,1.59,2.53,2.62a9.34,9.34,0,0,0,2.81,2.95c.12.1,0,.54-.06,1a26.44,26.44,0,0,1-3.12-1.76c-.84-.63-1.41-1.53-2.5-1.94a13.83,13.83,0,0,1-3.11-1.89c-.49-.35-.74-1-1.23-1.35a4.1,4.1,0,0,0-2-.87h-.1l-.5,0c-1.92,0-3.51-.9-5.16-1.7a5.6,5.6,0,0,1-.87.3,35.52,35.52,0,0,1-5.54.4c-2.29,0-4.59-.16-6.88-.31a6.46,6.46,0,0,1-4.18-1.61,3.76,3.76,0,0,0-2.9-1h-4c-1.44,1.41-2.17,2-3,2a4.68,4.68,0,0,1-1.89-.6,6.37,6.37,0,0,1-.8-.46,6.63,6.63,0,0,0-3.69-.94h-.28q-1.18,0-2.37,0h-4.56c-1.73,0-3.47.13-5.2.13-.42,0-.84,0-1.26,0h-.3c-1.5,0-3,.4-4.48.4a6.21,6.21,0,0,1-1.94-.29h-.09a1.23,1.23,0,0,0-.86,1.32c.41,1,.9,1.93,1.32,2.91a3.11,3.11,0,0,1,0,.93l-2.54,1.19c-3.42-2.61-6.73-5.34-11.12-6.36a11.43,11.43,0,0,1-1.76,1.33,4.81,4.81,0,0,0-2.87,4.34c0,.15-.47.28-.74.42l-2.32-1.37a27,27,0,0,0-1.21,4.71c-.18,2.91-.09,5.84-.05,8.77,0,.59.11,1.44.5,1.71,2.45,1.76,3.2,5.35,6.61,6.09A2.57,2.57,0,0,1,465.63,31c1.11,1.93,2.86,3.09,4.65,4.31a56.09,56.09,0,0,1,4.6,3.88c-.67.25-1.08.45-1.52.56a2.51,2.51,0,0,0-2.14,2.59c0,1.18-.13,2.36-.22,3.91-1.86-1.19-3.34-2.26-4.94-3.12s-3.57-1.69-5.26-2.47c-1.93,1.06-3.63,1.93-4.55,3.94a6.33,6.33,0,0,0-.41,4.89c1.36,1.22,3,2.05,3.9,3.83a4.3,4.3,0,0,0,2,1.78,8.2,8.2,0,0,1,2.52,2c2.71,2.87,4.93,6.26,8.69,8,.52.24.83.9,1.28,1.32,2,1.89,4,3.79,6.06,5.65,2.27,2,4.58,4.07,6.89,6.09a11.67,11.67,0,0,0,2.85,2.27c2.46,1,3.74,2.9,4.68,5.27a6.62,6.62,0,0,1-1.11.84.66.66,0,0,1-.25,0,1.16,1.16,0,0,1-.62-.18,14.48,14.48,0,0,1-1.8-1.43c-1.33-1.27-2.53-2.7-4-3.85-4.05-3.27-8-6.67-11.79-10.2-1.69-1.55-3.2-3.31-5-4.72a12.8,12.8,0,0,1-4-4.28,3.38,3.38,0,0,0-2.12-1.63A12.66,12.66,0,0,0,461.7,60a7.23,7.23,0,0,0-2.61.46c-1.53.58-2.75,1.33-2.85,3.2a4.49,4.49,0,0,1-.64,1.48,51.3,51.3,0,0,0,3.59,6.11,49.88,49.88,0,0,0,5.73,6c2.82,2.57,5.61,5.16,8.66,7.48,2.16,1.64,4,3.7,6.39,5.1.61.35.94,1.18,1.46,1.74,2.4,2.57,4.48,5.48,7.83,7a3.08,3.08,0,0,1,1.32,1.18c1.54,2.57,4.09,4.14,6.11,6.23s4.23,3.55,6.17,5.5,4.57,3.61,6.3,5.92c1.15,1.52,3,2.16,4.05,3.62a12.7,12.7,0,0,0,2.74,3c1.2.88,1.83,2.57,3.07,3.35,2.66,1.66,3.93,4.61,6.46,6.4,1.33.94,2,2.74,3.37,3.73,1.54,1.16,2,3.25,3.6,4.09s2.2,2.49,3.43,3.5c1.76,1.46,2.64,3.83,5,4.62.51.17.88.83,1.26,1.31,1,1.2,1.8,2.48,2.83,3.61a4.37,4.37,0,0,1,1.19,4c-.12,0-.26.06-.37.06a.17.17,0,0,1-.1,0,4.65,4.65,0,0,1-1.38-1.12,17.11,17.11,0,0,0-7.39-6.67c-1.73-.85-3.59-1.81-4.3-4a2.89,2.89,0,0,0-1.24-1.31c-2.1-1.34-4-2.78-5.12-5.14a5.35,5.35,0,0,0-1.67-1.56,42.3,42.3,0,0,0-4.07-3,4.14,4.14,0,0,1-2.23-2.74,3.46,3.46,0,0,0-1.74-2,26.16,26.16,0,0,1-2.49-2c-2-1.7-3.58-3.79-5.85-5.18a8.25,8.25,0,0,1-2.55-2.64,22.76,22.76,0,0,0-5.15-5.17c-2.72-2.25-5.27-4.7-7.89-7.06-1-2.08-2.85-3.15-4.62-4.38a4.36,4.36,0,0,1-1.64-1.57c-.89-2.11-2.59-3.34-4.35-4.6a15.15,15.15,0,0,1-2.27-2.26c-.93-1-1.85-2-2.72-3.12-2.21-2.75-5.66-4.26-7.45-7.44a2.36,2.36,0,0,0-.68-.61l-6.54-4.69a7.61,7.61,0,0,0-1.62-.2c-2.13,0-3.36,1.27-4,3.58a20.35,20.35,0,0,1-1.34,3A16.07,16.07,0,0,0,457,89.63a60.12,60.12,0,0,0,8.26,8.47,32.13,32.13,0,0,1,2.62,2.6c.28.28.21.49-.23.64-1.88-.36-3.25-1.61-4.69-2.76a3.47,3.47,0,0,0-2.14-.84,3,3,0,0,0-1.58.47c-.28,1.6-.66,3.09-.77,4.59-.22,3-.92,6,1.4,8.59-.87.53-1.83.9-1.78,2,.09,2.21-.71,4.24-1.25,6.29a4.47,4.47,0,0,0,.4,3.94,12.61,12.61,0,0,1,1.24,2.46,2.64,2.64,0,0,1,.26,1.72c-.88,2,.24,3.26,1.46,4.44,1.64,1.58,3.35,3.09,5.1,4.55a42,42,0,0,1,3.75,3.92c-.36.7-.64,1.24-1,1.89l-5.24-2.19-1.08.54c-2.75,1.26-3.33,2.37-2.42,4.93a8.68,8.68,0,0,0,1.36,2.38c1.76,2.28,4.22,3.92,5.82,6.37a2.94,2.94,0,0,0,1.47,1.07c1.41.48,2.18,1.61,3.16,2.58,1.51,1.49,3.18,2.81,4.81,4.17a5,5,0,0,0,1.91,1.26c2.82.53,4.35,2.72,6.19,4.52.37.36,1,.71.54,1.51-1.33.06-2.7.14-4.07.19h-.05c-.28,0-.58-.09-1-.15-1.07-.84-2.3-1.76-3.48-2.73-.46-.38-.81-.9-1.26-1.3a7.9,7.9,0,0,0-1.8-1.39c-3.24-1.5-5.78-4-8.72-5.94a4.65,4.65,0,0,1-1.62-1.62c-1.2-2.44-3.53-3.14-5.82-4.22-.43.84-1.07,1.52-1.07,2.19,0,4-.66,8,.09,11.91,1.8,1.52,3.51,3,5.21,4.43a10.58,10.58,0,0,0-1.61,2.37,8.59,8.59,0,0,0,3.36,9.32,18.66,18.66,0,0,1,4.21,3.3,6.68,6.68,0,0,0,1.91,1.2c.52.3,1.22.44,1.56.88a42.87,42.87,0,0,0,4.68,4.37c.55.51,1.26,1.26,1.24,1.88-.05,2.31,1.63,3.53,2.79,5.1.22.3.15.81.28,1.71-.91-.72-1.64-1-2-1.6-1.42-2.3-3.63-3.66-5.82-5a14.84,14.84,0,0,1-4.31-3.37,3.31,3.31,0,0,0-1.5-1,10.54,10.54,0,0,1-3.77-2.55c-1.42-1.33-1.6-1.29-4.53-1.73-1.59,4.28-1,8.7-.91,13a19.47,19.47,0,0,0,4.55,4.1,6.35,6.35,0,0,1,2.13,5.3c-2.56-1.8-5.41-3.3-6.5-6.66a106.76,106.76,0,0,0-.18,15.68c.11,2.05.77,4.19,3,5.32a12.92,12.92,0,0,1,2.44,2.16l-3.25,2.77a1.58,1.58,0,0,0-.53-.1c-.6,0-.87.47-1,1.16-.07.29-.24.56-.33.85-.91,2.76-1.56,5.57-.54,8.42a16.87,16.87,0,0,1,.82,4.94c.11,2.28-.09,4.61.73,6.84a2.43,2.43,0,0,1,0,1.78c-1.5,2.86,0,6.15-1.35,9a1.76,1.76,0,0,0,.14,1.34,9.17,9.17,0,0,1,.49,4.08c0,1.69.07,3.39,0,5.08-.12,2.3.3,4.28,2.59,5.41.1.05.13.26.15.4a.78.78,0,0,1,0,.43.39.39,0,0,1-.29.21h0c-.14,0-.26-.18-.4-.2a5.63,5.63,0,0,0-.87-.07c-1.24,0-1.76.61-1.8,2.11a45.16,45.16,0,0,0,.08,7.36c.35,2.43-.68,4.82.21,7.57,1.6,1.61,3.48,3.42,5.27,5.31a7.39,7.39,0,0,0,3.75,2.53c.83.19,1,1.1.79,2-1.25,1.43-3.82,1.4-4.36,3.77a25.81,25.81,0,0,0,.65,2.59,6.25,6.25,0,0,0,1.2,2.42c4.2,4,8.12,8.3,13.31,11.1a3.69,3.69,0,0,1,.95.94.46.46,0,0,1,.07.43c-.18.18-.45.46-.63.46h0a8.44,8.44,0,0,1-2.09-.83c-.78-.47-1.44-1.54-2.19-1.58-2.2-.11-3.13-1.52-4.2-3.08a3.69,3.69,0,0,0-3-1.61,4.46,4.46,0,0,0-.63.05c-2.24.41-4.51.83-6.2,2.66a3.81,3.81,0,0,0-.4,5,11.66,11.66,0,0,0,4.84,4.75c.69,1.67,2.62,2.1,3.55,3.48s2.65,2.06,3.84,3.19c2.33,2.21,4.46,4.6,7.37,6.12.83.44,1.11,1.21,1.51,3.18-5.32-2.93-9.71-7-14.5-10.42-1.55-2.34-4.42-2.63-6.48-4.17a.65.65,0,0,0-.42-.14,1.33,1.33,0,0,0-1.25,1.15c-.05,2.77-.15,5.54-.06,8.31a5.52,5.52,0,0,0,2.39,4.29,27.34,27.34,0,0,1,2.82,2.34,55.66,55.66,0,0,0,6.92,5.21c3.34,2.42,6.55,5,9.81,7.54a2.71,2.71,0,0,1,.65.66,12.51,12.51,0,0,0,4.59,3.77c1.74,1,3.37,2,4.35,3.94a5.6,5.6,0,0,0,2.43,2c2.78,1.43,4.83,3.76,7.14,5.75a14,14,0,0,0,2.67,2.33,19.85,19.85,0,0,1,3.17,2.59c.58.49,1.42.83,1.71,1.45a4,4,0,0,0,3.19,2.32,2.45,2.45,0,0,1,1.34,1.15c1.86,3.29,4.66,5.66,7.58,7.92a8.34,8.34,0,0,1,1.39,1.18c.81,1,1.54,2.1,2.36,3.23-.4.06-.73.17-.93.17a.24.24,0,0,1-.15,0c-1.63-1.4-3.11-3-4.85-4.22-1.9-1.33-3.83-2.52-4.77-4.77a1.77,1.77,0,0,0-.67-.63c-4-2.82-7.23-6.63-11.67-8.86a2.67,2.67,0,0,1-.94-.95c-2-3.1-5.57-4.31-8-6.91-2.28-.51-3.6-2.19-4.9-3.93-.44-.6-1-1.4-1.61-1.55a5.33,5.33,0,0,1-3.48-2.76,5.72,5.72,0,0,0-1.77-1.41c-1.11-.76-2.37-1.23-3.11-2.58-.48-.86-1.59-1.37-2.43-2L468,355.41c-2.66-2-5.27-4.12-8.09-5.93a1.67,1.67,0,0,0-.93-.29,1.46,1.46,0,0,0-1.45,1.36,14.18,14.18,0,0,0-.1,1.84c0,2,.07,4-.05,6a4.85,4.85,0,0,0,1.69,4.08l-1.82,1c0,1.55,0,3.22-.08,4.89a11.28,11.28,0,0,1-.17,3.2,15,15,0,0,0-.46,5c-.05,6.91-.06,13.82-.17,20.74a45.57,45.57,0,0,1-.57,5.45,15,15,0,0,0,.88,7c.53,1.07,1.14,2.1,1.71,3.13-2.07,1.41-3.34,2.89-2.52,5.41a19.35,19.35,0,0,1,.4,3.17q.27,1.81.66,3.6c.54,2.5,2.12,4.38,3.83,6.14,1.2,1.24,2.43,2.53,2.7,4.22.35,2.2,1.87,3.06,3.57,3.83a4.4,4.4,0,0,0,1.78.39,4,4,0,0,0,3.4-2c.55-.88,1-1.83,1.52-2.9a25.06,25.06,0,0,0,3.76,1.9,21.85,21.85,0,0,0,3.87.59c2.48-2.05,3.59-4.33,2-7.33-.11-.2.11-.57.21-1a4.79,4.79,0,0,1,3.12,1.38,6.45,6.45,0,0,0,4.7,1.86,11.41,11.41,0,0,0,1.71-.15c.89-.16,1.79-.32,2.67-.56a6.57,6.57,0,0,1,1.65-.26,3,3,0,0,1,2.21.92,2.75,2.75,0,0,0,2,.85,4.4,4.4,0,0,0,1.4-.25c1-.34,2-.76,3.13-1.2.26-.9.53-1.9.87-3.1a10.55,10.55,0,0,1,2.26.48c1.67.77,3.24,1.75,4.92,2.49a7.8,7.8,0,0,0,3.12.8,4.19,4.19,0,0,0,3.21-1.5c.27-.3.8-.35,1.38-.57,2.38,1.88,4.86,3.67,7.15,5.69a17.67,17.67,0,0,0,7,4.17c1.75.48,3.41,1.26,5,1.88,1.44-.48,2.66-1.08,3.12-2.58.54-1.75,1.34-3.47.55-5.37a17.88,17.88,0,0,1-.74-2.17c-.18-.68-1-1.22-.43-2.27a9.73,9.73,0,0,1,2.61,2.33,6.4,6.4,0,0,0,2.51,1.9,23.06,23.06,0,0,1,4.61,2.06c1.51.72,3.25.95,4.54,2.13a3.39,3.39,0,0,0,2.47.79l1.23,0a4.27,4.27,0,0,1,1.59.24c.29.11.55.28.84.4a2.57,2.57,0,0,0,1,.2,2.62,2.62,0,0,0,1.6-.58,20,20,0,0,0,2.57-1.95,30.58,30.58,0,0,0,2.33-3.07c1.44,1.17,2.79,2.17,4,3.29a5.14,5.14,0,0,0,3.49,1.42,5.63,5.63,0,0,0,1.66-.26,17,17,0,0,1,5.31-.72c2,0,4.34,1.23,6.08.2.71-.42,1.28-2.12,1.57-2.89a7.26,7.26,0,0,1,3-3.78c1.33-.9,1.48-2,.9-3.69-.25-.72-.53-1.43-.82-2.13a16.44,16.44,0,0,0-4.46-6.84,12.83,12.83,0,0,1-4-5,5.09,5.09,0,0,0-3.45-3.37,3.72,3.72,0,0,1-2.59-3.41,10,10,0,0,1,1.45.49c2.7,1.39,5,3.33,7.71,4.78.93.51,1.84,1.06,2.76,1.6a1.87,1.87,0,0,0,.94.25,1.47,1.47,0,0,0,1.56-1.22,22,22,0,0,0,.29-5c-.35-3.2,1.22-6.34.16-9.52,0-.11.13-.28.16-.42,1-3.94.52-7.94.54-11.92a4.06,4.06,0,0,0-.72-2.14c-1.75-2.49-3.19-5.23-5.88-6.95a4.37,4.37,0,0,1-1.47-1.74,10.66,10.66,0,0,0-3.86-4.4,6.77,6.77,0,0,1-1.49-1.73,12.75,12.75,0,0,0-1.86-2c-2.94-2.68-5.72-5.54-8.54-8.34-.07-.06,0-.25,0-.56a4.78,4.78,0,0,1,1.11-.15,1.67,1.67,0,0,1,1.62,1,4.82,4.82,0,0,0,3.56,2.62,3.88,3.88,0,0,1,1.85,1.18,9.19,9.19,0,0,0,6,2.69l.57,0,.31,0c1.5,0,2.6.91,3.68,1.5,2-.9,4.27-.4,5.73-2a41,41,0,0,0,1.06-4.93,9.22,9.22,0,0,0-1.09-6.21,77.83,77.83,0,0,0-6.73-8.42c1.35-1.62,3.11-2.94,4-4.93a24.59,24.59,0,0,0-1.11-3.58,3.46,3.46,0,0,1,.76-4.55,2.43,2.43,0,0,0,.26-3.38c-1.63-2-1.93-4.44-3-6.63l6-7.45c.51-3.07-.88-6.21-1.85-9.39a4.14,4.14,0,0,0-1.38-1.79c-1.67-1.34-3.43-2.56-5.12-3.87a10.36,10.36,0,0,1-2-1.86,24.76,24.76,0,0,0-4.82-4.88c-1.9-1.5-2.8-4-4.86-5.46a13.09,13.09,0,0,1-3.87-4.36h-.05a.07.07,0,0,1,0-.05,46.46,46.46,0,0,1-6.06-4.57,4.92,4.92,0,0,1-1.09-1.93c-.07-.16.19-.5.36-.71a.16.16,0,0,1,.11,0,1.2,1.2,0,0,1,.33.06c.28.11.66.18.79.4,1.41,2.38,4.4,3.31,5.51,5.95a2.26,2.26,0,0,1,0,.83l0,0,0,0a2.22,2.22,0,0,1,.57-.07,2.88,2.88,0,0,1,1.9.86c.56.5,1,1.12,1.54,1.66a5.64,5.64,0,0,0,4,2.07,4.76,4.76,0,0,0,2.17-.56,2.67,2.67,0,0,1,1.23-.31,4,4,0,0,1,1.82.54,11.7,11.7,0,0,0,3.37,1.34,14.82,14.82,0,0,0,2,.13c.87,0,1.74-.06,2.6-.12,3-.23,3.93-1.36,3.82-4.47,0-.15-.07-.3-.09-.45a4.09,4.09,0,0,1,1.38-4.15,4.66,4.66,0,0,0,1.55-3.69,21.34,21.34,0,0,0,0-2.77,2.84,2.84,0,0,1,2.14-3.12c.69-.24,1.7-1.42,2.35-1.77a12.75,12.75,0,0,1,1.29-.47l1.24.35h0a5.28,5.28,0,0,1,2.38,1,12.12,12.12,0,0,0,4.57,2.19c5.67,1.42,9.07,4,12.72,7.75l1.38,1.41a13.07,13.07,0,0,1-.18,2,9.15,9.15,0,0,1-1.54,2.85c-.55.55-2.24,1.22-2.28,2.13a3.79,3.79,0,0,0,1,3c2.84,2.83,1.75,3.61-.63,5.33a.67.67,0,0,0-.17.26c-1,3.67,1.08,6.66,1.8,9.9a1.73,1.73,0,0,0,.88,1,6.33,6.33,0,0,1,2.3,2.15,9.36,9.36,0,0,0,2.94,2.11c1.12.63,1.87,1.92,2.8,2.92a1,1,0,0,0,.38.24c3.73,1.33,6.07,4.6,9.32,6.61,2.58,1.6,4.68,3.86,7.58,5.11,1.76.75,3.15,2.37,4.71,3.6,1.08.85,2.17,1.68,3.22,2.55,2.93,2.42,6.83,3.57,9,7a3,3,0,0,0,1.5,1,5.74,5.74,0,0,1,2.72,2.36,10.57,10.57,0,0,0,1.91,1.93c1.87,1.57,3.84,3,5.66,4.65a51.44,51.44,0,0,1,5.92,5.79c1.84,2.29,4.75,3.37,6.26,6,.49.85,1.87,1.17,2.41,2a33.45,33.45,0,0,0,3.61,4.16c.28.31,1.85,1.29,2.22,1.64,2.19,2.08,4.3,4.24,6.54,6.47a9,9,0,0,1-.95.28l-.1,0a28.47,28.47,0,0,1-6.07-4.8c-.6-.67-4.27-3.36-5.45-4.61-3.07-3.23-7.09-5.39-9.93-8.9a9.21,9.21,0,0,0-3-2.13,5.35,5.35,0,0,1-2.77-2.88,2,2,0,0,0-1.67-1.42A3.66,3.66,0,0,1,678,348.8a21.39,21.39,0,0,0-2.19-2.27c-1.48-1.55-3.16-2.85-4.73-4.28s-2.85-3.09-4.87-4.12c-1.83-.93-2.85-3.22-5.24-3.47-.25,0-.52-.33-.69-.57-2.44-3.41-6.27-5.29-9.09-8.29a2.46,2.46,0,0,0-.73-.55c-3.91-1.87-7.2-4.65-10.67-7.15a3.1,3.1,0,0,0-1.81-.7,2.47,2.47,0,0,0-1.18.32,2.06,2.06,0,0,1-1,.28,5.48,5.48,0,0,1-1.14-.18,17.06,17.06,0,0,0-3.64-.4h0a3.46,3.46,0,0,0-3.35,2.64c-.52,2.87-.82,5.75.93,8.42a3.42,3.42,0,0,1,.54,2.16c-.33,2.54.71,4.38,2.37,6.19a26.69,26.69,0,0,0,4.75,4.27,5.11,5.11,0,0,1,2.24,2.22,8,8,0,0,0,3,3.42,15.43,15.43,0,0,1,2.49,2.67,1,1,0,0,1,0,.84.57.57,0,0,1-.51.31,1.74,1.74,0,0,1-.7-.22,2.52,2.52,0,0,1-1.13-.78c-1.25-2.11-3.7-2.63-5.4-4.16a2.05,2.05,0,0,0-1.38-.52,3.22,3.22,0,0,0-1.66.51,7,7,0,0,0-1.76,1.43c-.75.94-1.34,2-2.1,3.14a7.38,7.38,0,0,1,.87,7.44c1.12,1.19,2.11,2.36,3.23,3.39,2.4,2.22,2.41,2.21,2.88,3.84-1.08-.67-1.93-1.28-2.85-1.74a1.2,1.2,0,0,0-.57-.14,1.16,1.16,0,0,0-1,.62c-.43.79-.5,1.84-1.07,2.47-1.73,1.94-1.72,4.17-1.51,6.5a6.66,6.66,0,0,0,2.19,4.34c1.62,1.63,3.79,2.69,5,4.62a17.65,17.65,0,0,0,3.91,3.81c2.1,1.79,4.12,3.67,6.21,5.47.69.59,1.49,1.05,2.22,1.58a17.54,17.54,0,0,1,1.79,1.4c2.51,2.47,4.8,5.17,8.27,6.45.74.27,1.22,1.25,1.93,2a4.61,4.61,0,0,1-1.77.4,3.23,3.23,0,0,1-2.25-1c-1.11-1-1.92-2.44-3.5-2.91-2.1-.62-3.72-2.08-5.51-3.22-1.54-1-2.9-2.44-4.56-3a17.13,17.13,0,0,1-5.51-3.21c-1.69-1.32-3.35-2.68-5-4a1.89,1.89,0,0,0-1.17-.39,1.78,1.78,0,0,0-1.35.57,6,6,0,0,0-1.57,2.22c-.49,2.25-.76,4.57.62,6.68,1,1.54,1.85,3.2,3.72,4a5.49,5.49,0,0,1,1.41,1.16,1.1,1.1,0,0,1-.19,1.88c-.14.06-.31.05-.45.1-2.32.91-2.88,1.64-2.4,3.63.39,1.62.73,3.31,2.1,4.51a5.87,5.87,0,0,1,1.81,2.6,4.55,4.55,0,0,0,1.91,2.52c.46.29.65,1,1,1.53a1.11,1.11,0,0,1-.56,1.49c-.89.2-1.81.29-2.7.5a2.11,2.11,0,0,0-1.71,1.92c-.15,3.09-.19,6.23,1.23,9s1.45,5.82,2.51,8.84c.14.4.5,1.31.91,1.4,1.47.33,2.64-1.45,3.68-2.67,1.19-1.39-.81-3.4.33-4.22.23-.17,6.94,3.79,9.59,6.37a6,6,0,0,0,4.45,1.58c.68,0,1.37-.06,2.07-.13a2.36,2.36,0,0,0,1.83-2.34,8.32,8.32,0,0,0-.26-1.78c-.17-.73-.47-1.44-.62-2.17s-.25-1.68-.37-2.49a5,5,0,0,1,1.78-.35,4.6,4.6,0,0,1,2,.48,3.65,3.65,0,0,0,1.65.41,5.28,5.28,0,0,0,3.05-1.23c2.08-1.5,2.34-2.43,1.53-5.15-.16-.56-.52-1.07.16-1.5a5.87,5.87,0,0,1,.83.43c2,1.43,3.9,3,5.95,4.3s3.66,3.2,6,4.12a3.2,3.2,0,0,1,1,.92,12.53,12.53,0,0,0,8.1,3.81c1.17.13,2.34.33,3.39.48,3.65-3.42,4.76-4.9,3.07-11.28a4.51,4.51,0,0,1,1.21.4c3.52,2.43,7,4.89,10.76,7.51.55,0,1.23.06,1.94.06a6.72,6.72,0,0,0,1.41-.12,20.94,20.94,0,0,0,2.88-1.37c1.33-.51.74-2.29,2.07-2.88l5.71,3.73c1,2.28,3.61,2.73,5.17,4.36s3.35,2.05,5.16,2.75a15.24,15.24,0,0,0,4.91-2.37c.5-1.67,1-3.21,1.41-4.73a5.51,5.51,0,0,1,3.09,2.2c.34.47.85,1.12,1.3,1.14,2,.07,2.76,1.86,4.15,2.59a15.72,15.72,0,0,0,2.88.25c3.22,0,6.33-.87,9.46-1.36a2.69,2.69,0,0,0,2.47-1.94c-.82-1.2-1.63-2.5-2.56-3.71s-2.68-1.26-3.53-2.86c2.9.7,2.89.72,4.53,2.17a10.18,10.18,0,0,0,2.52,2,63.59,63.59,0,0,0,6.11,1.9,1.73,1.73,0,0,0,.38.05,1.47,1.47,0,0,0,1.35-1.64c-.07-2.77-.15-5.53-.26-8.3a8,8,0,0,0-.29-1.81c-.37-1.31-.61-2.73-2.08-3.37-.4-2.35-1.9-3.69-4-4.64-.64-.29-1-1.1-1.59-1.64-1.63-1.64-3.22-3.31-4.92-4.87-1.91-1.74-3.93-3.38-5.9-5.06-1.05-2.8-4-3.67-5.81-5.74-.6-.69-1.26-1.35-1.79-2.09-.2-.28-.14-.76-.27-1.71,2.07,2.13,4.2,3.15,6.4,3.15a8.79,8.79,0,0,0,3.9-1c1,.57,2,.86,2.48,1.55,2,3.21,5.9,4.28,8,7.36.65.93,2,1.39,3,2a.91.91,0,0,0,.5.13,1.85,1.85,0,0,0,1.45-.85,5.65,5.65,0,0,0,.88-3.05c0-2.31.05-4.61.07-6.91a7.85,7.85,0,0,0-2.91-6.48c-.89-.74-2-1.35-2.25-2.69l5.06-1.85a34,34,0,0,0,.25-6.63,4.58,4.58,0,0,0-3-4.75,4.85,4.85,0,0,1-1-.7c0-.46-.08-.84.07-1.05,1.29-1.76.94-3.44-.1-5.15-1.2-2-2.46-3.9-3.47-6a12,12,0,0,0-4.34-5.25,3.87,3.87,0,0,1-2-2.83c.24-.1.54-.33.74-.33h.07c1.86.87,4.28.67,5.43,2.92a3,3,0,0,0,1.48,1,24.39,24.39,0,0,1,4.9,2.45.51.51,0,0,0,.31.08c.29,0,.69-.13,1-.16.37-1.2.76-2.34,1.08-3.49A2.1,2.1,0,0,0,773,356a4.6,4.6,0,0,1,.13-4,3.28,3.28,0,0,0,0-2.27c-.73-1.62-.55-3.32-.7-5a6.39,6.39,0,0,0-2.84-5,11.9,11.9,0,0,1-3.37-3.09c-1.34-2.13-3.24-3.66-4.9-5.45a8.76,8.76,0,0,1-1.39-1.83c-.39-.72-1.3-1.27-.86-2.52,1,.11,2.07.19,3.11.35s2.07.46,3.12.58h.26a2.22,2.22,0,0,0,2-1.3,16.4,16.4,0,0,0,1-3c.33-1.16.55-2.36.81-3.51-.69-1.89-2.12-3.43-2.31-5.52.49-.77,1-1.52,1.45-2.34s.7-1.67,1-2.47c-.65-1.37-1.16-2.65-1.84-3.84s-1.63-2.44-2.53-3.76c1.45-1.25,2.79-2.28,4-3.45a3.62,3.62,0,0,0,1.28-3.31c-.89-4.64-1.73-9.31-5.18-12.93a9.1,9.1,0,0,1-.88-1.07c-.66-.9-.67-1.69.37-2.29a2.32,2.32,0,0,0,1.29-2.2,7.17,7.17,0,0,1,.25-1.24l5.71,2.78a1.75,1.75,0,0,0,1.18-1.83c.06-3.84.33-7.7.09-11.52-.17-2.73-1-5.42-3.64-7-.91-.56-1.62-1.45-2.54-2-3.44-2-6.49-4.57-10.21-6.06a10.86,10.86,0,0,1-3.07-2,5.78,5.78,0,0,0-3.74-1.51,3.79,3.79,0,0,1-2-.83c-4.11-3.25-9.27-4.77-13.3-8.12-3.3-.69-5.47-3.26-8.16-5-1.91-1.21-3.3-3.37-5.3-4.26-2.34-1-2.91-3.53-4.88-4.71-.13-.08-.23-.21-.36-.3a10.14,10.14,0,0,1-3.05-2.67c-.69-1.06-2.23-1.53-3.23-2.44-1.69-1.53-3.25-3.21-4.87-4.83a4.32,4.32,0,0,0-1-.91,10.94,10.94,0,0,1-3.79-3.21,20.22,20.22,0,0,0-2.88-2.23,5.64,5.64,0,0,1-1.06-1.47c0-.05.33-.49.5-.49a2.07,2.07,0,0,1,1.28.32c2,2.07,4.56,3.53,6.63,5.54s4.56,3.12,6.68,4.85c4,3.29,8.39,6.15,12.56,9.25a73,73,0,0,0,6.59,4.22c2.11,1.25,4.52,2.09,6.38,3.62,2.17,1.8,4.62,2.21,7.16,2.68a4.79,4.79,0,0,1,1.2.67c1.89,1,3.92,1.76,5.22,3.64a4.28,4.28,0,0,0,1.47,1.09c4.13,2.35,7.71,5.48,12,8.23,1.77.2,4-.16,6,.87a1.19,1.19,0,0,0,.54.13,2.51,2.51,0,0,0,1.56-.78,3.48,3.48,0,0,0,1.27-2.38c.09-2.15.17-4.3.27-6.44a7.61,7.61,0,0,0-1.8-5.11c-.65-.85-1.38-1.64-2.12-2.43-1.36-1.46-2.74-2.9-4.12-4.34-.23-2.51-2.7-3.16-4-4.82a9.84,9.84,0,0,1-1-1.89,1.55,1.55,0,0,1,.89-.3c.84,0,1.46.79,2.25.79H764a10.21,10.21,0,0,1,3.29.39,2.53,2.53,0,0,0,.85.16,2.79,2.79,0,0,0,2-1,17.09,17.09,0,0,0,1.43-2.35c.2-.29.66-.4.83-.5.45,1.37.83,2.62,1.29,3.84.07.19.5.35.76.35s.64-.22.66-.4a27,27,0,0,0-.27-9.14,1.5,1.5,0,0,0-.86-.9h0a5.13,5.13,0,0,0-1.37,1.06c-3.53-3.11-6.59-6.6-10-9.75a3.12,3.12,0,0,1,2.33-1.25A2.29,2.29,0,0,1,766.28,203.43ZM626,232.91l-.54.08-.63.1c-.08.3-.17.59-.25.85s-.13.42-.18.6l1,1.64-1.06,2.1a6.09,6.09,0,0,0-.19,2.21c0,.46,0,.92,0,1.39a8.88,8.88,0,0,1-3.92,6.78l-2.1,1.66-2.4-1.18-1.23-.59c-1.06-.51-2.15-1-3.26-1.65a4.82,4.82,0,0,0-2.16-.78l-.33,0a6.39,6.39,0,0,1-1.21.12c-2.38,0-3.69-1.42-4.74-2.55l-.4-.42-1.6-1.72.59-2.27a22.51,22.51,0,0,0,.54-2.28,21.11,21.11,0,0,0-1.19-2.29l-.81-1.47.41-1.61c.07-.29.14-.57.22-.85.14-.53.27-1,.34-1.46,0-.24.06-.63.08-1s0-.56,0-.85l.11-1.78a15.68,15.68,0,0,1-2.62-3.81l-.43-.78-4.5-8,9,1.69.5.08.22,0-.49-.54-.66-.73-1-1.13L601,211a8.39,8.39,0,0,1,1.74-6.36l-.09-.17-.95-1.88.91-1.89c.15-.31.31-.62.47-.94s.39-.75.54-1.09c-.41-.47-.79-.92-1.14-1.34l-.5-.61L600.52,195l.64-2.19a6.27,6.27,0,0,1,4.28-4.34,13.7,13.7,0,0,0-.87-2.71,36.72,36.72,0,0,0-1.77-3.3c-.33-.59-.68-1.18-1-1.81l-2.1-3.79,3.83-2a3.61,3.61,0,0,0,1-.69,2.1,2.1,0,0,0-.11-.46l0-.07a8.1,8.1,0,0,1-.48-2.58c0-1-.27-2.19-2.22-3.91a15.92,15.92,0,0,1-4.9-6.68l-2.8-7.71,7.91,2.15.24.06a6.2,6.2,0,0,1,2.17.83,4.73,4.73,0,0,1,1.7,1.92c.21.22.36.37.47.47a10.18,10.18,0,0,0,1.18-.43l.25-.1a15.35,15.35,0,0,1,3.8-1.18,11.19,11.19,0,0,1,1.6-.12,6.79,6.79,0,0,1,4.21,1.26,7.6,7.6,0,0,0,2.55.9l.66.16,4.91,1.26-2.09,4.62L622,167.81l1.21,2.14,1.54,2.81.64,1.19.88,1.61-.56,1.74-.34,1c-.23.71-.45,1.4-.68,2.08-.5,1.55-.33,1.68,0,2a7.88,7.88,0,0,1,2.27,3.4l.11.28a7.93,7.93,0,0,1-2.16,9.44c-.63.55-1.26,1-1.92,1.52a23.66,23.66,0,0,0,.23,4.82c0,.06.1.16.2.29s.46.49.77.8.58.55.85.83l.31.33a10.36,10.36,0,0,1,1.78,2.18,14.06,14.06,0,0,1,1.07,2.43l.14.39.34.83,0,.9a6.61,6.61,0,0,1-3.67,5.92,15.79,15.79,0,0,0,1.38,4.7,28.72,28.72,0,0,0,1.72,3.41c.34.62.69,1.25,1,1.9l2.76,5.29Z"/></g></g></svg>